<svg width="1149" height="630" viewBox="0 0 1149 630" fill="none" xmlns="http://www.w3.org/2000/svg">
<path d="M27.022 292.105C28.7032 292.105 29.9759 292.719 30.84 293.947C31.7199 295.161 32.1598 296.928 32.1598 299.249C32.1598 301.569 31.7199 303.343 30.84 304.57C29.9759 305.798 28.7032 306.412 27.022 306.412C25.3566 306.412 24.0839 305.798 23.2041 304.57C22.3242 303.343 21.8843 301.569 21.8843 299.249C21.8843 296.942 22.3242 295.175 23.2041 293.947C24.0839 292.719 25.3566 292.105 27.022 292.105ZM23.5576 299.249C23.5576 300.894 23.7304 302.183 24.0761 303.114L29.3081 294.149C28.7582 293.515 27.9962 293.198 27.022 293.198C25.9379 293.198 25.0895 293.697 24.4767 294.696C23.864 295.68 23.5576 297.198 23.5576 299.249ZM27.022 305.299C28.1219 305.299 28.9782 304.807 29.5909 303.822C30.2037 302.823 30.5101 301.299 30.5101 299.249C30.5101 297.508 30.3137 296.159 29.9209 295.201L24.6888 304.247C25.2545 304.948 26.0322 305.299 27.022 305.299Z" fill="url(#paint0_linear_167_180)" fill-opacity="0.6"/>
<path d="M28.4361 328.263H31.9005V329.336H22.9213V328.263H26.9278V316.891L23.1098 318.854L22.4499 317.943L27.1634 315.434H28.4361V328.263Z" fill="url(#paint1_linear_167_180)" fill-opacity="0.6"/>
<path d="M27.022 338.358C28.7032 338.358 29.9759 338.972 30.84 340.199C31.7199 341.413 32.1598 343.181 32.1598 345.501C32.1598 347.821 31.7199 349.595 30.84 350.823C29.9759 352.05 28.7032 352.664 27.022 352.664C25.3566 352.664 24.0839 352.05 23.2041 350.823C22.3242 349.595 21.8843 347.821 21.8843 345.501C21.8843 343.194 22.3242 341.427 23.2041 340.199C24.0839 338.972 25.3566 338.358 27.022 338.358ZM23.5576 345.501C23.5576 347.147 23.7304 348.435 24.0761 349.366L29.3081 340.402C28.7582 339.768 27.9962 339.451 27.022 339.451C25.9379 339.451 25.0895 339.95 24.4767 340.948C23.864 341.933 23.5576 343.45 23.5576 345.501ZM27.022 351.551C28.1219 351.551 28.9782 351.059 29.5909 350.074C30.2037 349.076 30.5101 347.551 30.5101 345.501C30.5101 343.761 30.3137 342.412 29.9209 341.454L24.6888 350.499C25.2545 351.201 26.0322 351.551 27.022 351.551Z" fill="url(#paint2_linear_167_180)" fill-opacity="0.6"/>
<path d="M28.4361 374.516H31.9005V375.588H22.9213V374.516H26.9278V363.143L23.1098 365.106L22.4499 364.195L27.1634 361.686H28.4361V374.516Z" fill="url(#paint3_linear_167_180)" fill-opacity="0.6"/>
<path d="M28.4361 397.642H31.9005V398.714H22.9213V397.642H26.9278V386.269L23.1098 388.232L22.4499 387.322L27.1634 384.812H28.4361V397.642Z" fill="url(#paint4_linear_167_180)" fill-opacity="0.6"/>
<path d="M27.022 407.736C28.7032 407.736 29.9759 408.35 30.84 409.578C31.7199 410.792 32.1598 412.559 32.1598 414.879C32.1598 417.2 31.7199 418.974 30.84 420.201C29.9759 421.429 28.7032 422.043 27.022 422.043C25.3566 422.043 24.0839 421.429 23.2041 420.201C22.3242 418.974 21.8843 417.2 21.8843 414.879C21.8843 412.573 22.3242 410.805 23.2041 409.578C24.0839 408.35 25.3566 407.736 27.022 407.736ZM23.5576 414.879C23.5576 416.525 23.7304 417.813 24.0761 418.744L29.3081 409.78C28.7582 409.146 27.9962 408.829 27.022 408.829C25.9379 408.829 25.0895 409.328 24.4767 410.326C23.864 411.311 23.5576 412.829 23.5576 414.879ZM27.022 420.93C28.1219 420.93 28.9782 420.437 29.5909 419.453C30.2037 418.454 30.5101 416.93 30.5101 414.879C30.5101 413.139 30.3137 411.79 29.9209 410.832L24.6888 419.878C25.2545 420.579 26.0322 420.93 27.022 420.93Z" fill="url(#paint5_linear_167_180)" fill-opacity="0.6"/>
<path d="M28.4361 443.894H31.9005V444.967H22.9213V443.894H26.9278V432.522L23.1098 434.485L22.4499 433.574L27.1634 431.065H28.4361V443.894Z" fill="url(#paint6_linear_167_180)" fill-opacity="0.6"/>
<path d="M27.022 453.989C28.7032 453.989 29.9759 454.602 30.84 455.83C31.7199 457.044 32.1598 458.811 32.1598 461.132C32.1598 463.452 31.7199 465.226 30.84 466.454C29.9759 467.681 28.7032 468.295 27.022 468.295C25.3566 468.295 24.0839 467.681 23.2041 466.454C22.3242 465.226 21.8843 463.452 21.8843 461.132C21.8843 458.825 22.3242 457.058 23.2041 455.83C24.0839 454.602 25.3566 453.989 27.022 453.989ZM23.5576 461.132C23.5576 462.778 23.7304 464.066 24.0761 464.997L29.3081 456.032C28.7582 455.398 27.9962 455.081 27.022 455.081C25.9379 455.081 25.0895 455.58 24.4767 456.579C23.864 457.564 23.5576 459.081 23.5576 461.132ZM27.022 467.182C28.1219 467.182 28.9782 466.69 29.5909 465.705C30.2037 464.707 30.5101 463.182 30.5101 461.132C30.5101 459.391 30.3137 458.042 29.9209 457.085L24.6888 466.13C25.2545 466.831 26.0322 467.182 27.022 467.182Z" fill="url(#paint7_linear_167_180)" fill-opacity="0.6"/>
<path d="M27.022 477.115C28.7032 477.115 29.9759 477.729 30.84 478.956C31.7199 480.17 32.1598 481.938 32.1598 484.258C32.1598 486.578 31.7199 488.352 30.84 489.58C29.9759 490.807 28.7032 491.421 27.022 491.421C25.3566 491.421 24.0839 490.807 23.2041 489.58C22.3242 488.352 21.8843 486.578 21.8843 484.258C21.8843 481.951 22.3242 480.184 23.2041 478.956C24.0839 477.729 25.3566 477.115 27.022 477.115ZM23.5576 484.258C23.5576 485.904 23.7304 487.192 24.0761 488.123L29.3081 479.159C28.7582 478.524 27.9962 478.207 27.022 478.207C25.9379 478.207 25.0895 478.707 24.4767 479.705C23.864 480.69 23.5576 482.207 23.5576 484.258ZM27.022 490.308C28.1219 490.308 28.9782 489.816 29.5909 488.831C30.2037 487.833 30.5101 486.308 30.5101 484.258C30.5101 482.518 30.3137 481.169 29.9209 480.211L24.6888 489.256C25.2545 489.957 26.0322 490.308 27.022 490.308Z" fill="url(#paint8_linear_167_180)" fill-opacity="0.6"/>
<path d="M28.4361 513.273H31.9005V514.345H22.9213V513.273H26.9278V501.9L23.1098 503.863L22.4499 502.952L27.1634 500.443H28.4361V513.273Z" fill="url(#paint9_linear_167_180)" fill-opacity="0.6"/>
<path d="M27.022 523.367C28.7032 523.367 29.9759 523.981 30.84 525.209C31.7199 526.423 32.1598 528.19 32.1598 530.51C32.1598 532.83 31.7199 534.604 30.84 535.832C29.9759 537.06 28.7032 537.674 27.022 537.674C25.3566 537.674 24.0839 537.06 23.2041 535.832C22.3242 534.604 21.8843 532.83 21.8843 530.51C21.8843 528.203 22.3242 526.436 23.2041 525.209C24.0839 523.981 25.3566 523.367 27.022 523.367ZM23.5576 530.51C23.5576 532.156 23.7304 533.444 24.0761 534.375L29.3081 525.411C28.7582 524.777 27.9962 524.46 27.022 524.46C25.9379 524.46 25.0895 524.959 24.4767 525.957C23.864 526.942 23.5576 528.46 23.5576 530.51ZM27.022 536.561C28.1219 536.561 28.9782 536.068 29.5909 535.083C30.2037 534.085 30.5101 532.561 30.5101 530.51C30.5101 528.77 30.3137 527.421 29.9209 526.463L24.6888 535.508C25.2545 536.21 26.0322 536.561 27.022 536.561Z" fill="url(#paint10_linear_167_180)" fill-opacity="0.6"/>
<path d="M28.4361 559.525H31.9005V560.597H22.9213V559.525H26.9278V548.153L23.1098 550.115L22.4499 549.205L27.1634 546.696H28.4361V559.525Z" fill="url(#paint11_linear_167_180)" fill-opacity="0.6"/>
<path d="M28.4361 582.651H31.9005V583.723H22.9213V582.651H26.9278V571.279L23.1098 573.242L22.4499 572.331L27.1634 569.822H28.4361V582.651Z" fill="url(#paint12_linear_167_180)" fill-opacity="0.6"/>
<path d="M70.7906 338.358C72.4718 338.358 73.7444 338.972 74.6086 340.199C75.4884 341.413 75.9283 343.181 75.9283 345.501C75.9283 347.821 75.4884 349.595 74.6086 350.823C73.7444 352.05 72.4718 352.664 70.7906 352.664C69.1251 352.664 67.8525 352.05 66.9726 350.823C66.0928 349.595 65.6528 347.821 65.6528 345.501C65.6528 343.194 66.0928 341.427 66.9726 340.199C67.8525 338.972 69.1251 338.358 70.7906 338.358ZM67.3261 345.501C67.3261 347.147 67.499 348.435 67.8446 349.366L73.0767 340.402C72.5267 339.768 71.7647 339.451 70.7906 339.451C69.7065 339.451 68.858 339.95 68.2453 340.948C67.6325 341.933 67.3261 343.45 67.3261 345.501ZM70.7906 351.551C71.8904 351.551 72.7467 351.059 73.3595 350.074C73.9722 349.076 74.2786 347.551 74.2786 345.501C74.2786 343.761 74.0822 342.412 73.6894 341.454L68.4574 350.499C69.023 351.201 69.8008 351.551 70.7906 351.551Z" fill="url(#paint13_linear_167_180)" fill-opacity="0.6"/>
<path d="M72.2046 374.516H75.6691V375.588H66.6898V374.516H70.6963V363.143L66.8784 365.106L66.2185 364.195L70.932 361.686H72.2046V374.516Z" fill="url(#paint14_linear_167_180)" fill-opacity="0.6"/>
<path d="M70.7906 384.61C72.4718 384.61 73.7444 385.224 74.6086 386.452C75.4884 387.666 75.9283 389.433 75.9283 391.753C75.9283 394.074 75.4884 395.848 74.6086 397.075C73.7444 398.303 72.4718 398.917 70.7906 398.917C69.1251 398.917 67.8525 398.303 66.9726 397.075C66.0928 395.848 65.6528 394.074 65.6528 391.753C65.6528 389.446 66.0928 387.679 66.9726 386.452C67.8525 385.224 69.1251 384.61 70.7906 384.61ZM67.3261 391.753C67.3261 393.399 67.499 394.687 67.8446 395.618L73.0767 386.654C72.5267 386.02 71.7647 385.703 70.7906 385.703C69.7065 385.703 68.858 386.202 68.2453 387.2C67.6325 388.185 67.3261 389.703 67.3261 391.753ZM70.7906 397.804C71.8904 397.804 72.7467 397.311 73.3595 396.326C73.9722 395.328 74.2786 393.804 74.2786 391.753C74.2786 390.013 74.0822 388.664 73.6894 387.706L68.4574 396.751C69.023 397.453 69.8008 397.804 70.7906 397.804Z" fill="url(#paint15_linear_167_180)" fill-opacity="0.6"/>
<path d="M70.7906 407.736C72.4718 407.736 73.7444 408.35 74.6086 409.578C75.4884 410.792 75.9283 412.559 75.9283 414.879C75.9283 417.2 75.4884 418.974 74.6086 420.201C73.7444 421.429 72.4718 422.043 70.7906 422.043C69.1251 422.043 67.8525 421.429 66.9726 420.201C66.0928 418.974 65.6528 417.2 65.6528 414.879C65.6528 412.573 66.0928 410.805 66.9726 409.578C67.8525 408.35 69.1251 407.736 70.7906 407.736ZM67.3261 414.879C67.3261 416.525 67.499 417.813 67.8446 418.744L73.0767 409.78C72.5267 409.146 71.7647 408.829 70.7906 408.829C69.7065 408.829 68.858 409.328 68.2453 410.326C67.6325 411.311 67.3261 412.829 67.3261 414.879ZM70.7906 420.93C71.8904 420.93 72.7467 420.437 73.3595 419.453C73.9722 418.454 74.2786 416.93 74.2786 414.879C74.2786 413.139 74.0822 411.79 73.6894 410.832L68.4574 419.878C69.023 420.579 69.8008 420.93 70.7906 420.93Z" fill="url(#paint16_linear_167_180)" fill-opacity="0.6"/>
<path d="M72.2046 443.894H75.6691V444.967H66.6898V443.894H70.6963V432.522L66.8784 434.485L66.2185 433.574L70.932 431.065H72.2046V443.894Z" fill="url(#paint17_linear_167_180)" fill-opacity="0.6"/>
<path d="M70.7906 453.989C72.4718 453.989 73.7444 454.602 74.6086 455.83C75.4884 457.044 75.9283 458.811 75.9283 461.132C75.9283 463.452 75.4884 465.226 74.6086 466.454C73.7444 467.681 72.4718 468.295 70.7906 468.295C69.1251 468.295 67.8525 467.681 66.9726 466.454C66.0928 465.226 65.6528 463.452 65.6528 461.132C65.6528 458.825 66.0928 457.058 66.9726 455.83C67.8525 454.602 69.1251 453.989 70.7906 453.989ZM67.3261 461.132C67.3261 462.778 67.499 464.066 67.8446 464.997L73.0767 456.032C72.5267 455.398 71.7647 455.081 70.7906 455.081C69.7065 455.081 68.858 455.58 68.2453 456.579C67.6325 457.564 67.3261 459.081 67.3261 461.132ZM70.7906 467.182C71.8904 467.182 72.7467 466.69 73.3595 465.705C73.9722 464.707 74.2786 463.182 74.2786 461.132C74.2786 459.391 74.0822 458.042 73.6894 457.085L68.4574 466.13C69.023 466.831 69.8008 467.182 70.7906 467.182Z" fill="url(#paint18_linear_167_180)" fill-opacity="0.6"/>
<path d="M72.2046 490.146H75.6691V491.219H66.6898V490.146H70.6963V478.774L66.8784 480.737L66.2185 479.826L70.932 477.317H72.2046V490.146Z" fill="url(#paint19_linear_167_180)" fill-opacity="0.6"/>
<path d="M70.7906 500.241C72.4718 500.241 73.7444 500.855 74.6086 502.082C75.4884 503.296 75.9283 505.064 75.9283 507.384C75.9283 509.704 75.4884 511.478 74.6086 512.706C73.7444 513.934 72.4718 514.547 70.7906 514.547C69.1251 514.547 67.8525 513.934 66.9726 512.706C66.0928 511.478 65.6528 509.704 65.6528 507.384C65.6528 505.077 66.0928 503.31 66.9726 502.082C67.8525 500.855 69.1251 500.241 70.7906 500.241ZM67.3261 507.384C67.3261 509.03 67.499 510.318 67.8446 511.249L73.0767 502.285C72.5267 501.651 71.7647 501.334 70.7906 501.334C69.7065 501.334 68.858 501.833 68.2453 502.831C67.6325 503.816 67.3261 505.333 67.3261 507.384ZM70.7906 513.434C71.8904 513.434 72.7467 512.942 73.3595 511.957C73.9722 510.959 74.2786 509.435 74.2786 507.384C74.2786 505.644 74.0822 504.295 73.6894 503.337L68.4574 512.382C69.023 513.084 69.8008 513.434 70.7906 513.434Z" fill="url(#paint20_linear_167_180)" fill-opacity="0.6"/>
<path d="M70.7906 523.367C72.4718 523.367 73.7444 523.981 74.6086 525.209C75.4884 526.423 75.9283 528.19 75.9283 530.51C75.9283 532.83 75.4884 534.604 74.6086 535.832C73.7444 537.06 72.4718 537.674 70.7906 537.674C69.1251 537.674 67.8525 537.06 66.9726 535.832C66.0928 534.604 65.6528 532.83 65.6528 530.51C65.6528 528.203 66.0928 526.436 66.9726 525.209C67.8525 523.981 69.1251 523.367 70.7906 523.367ZM67.3261 530.51C67.3261 532.156 67.499 533.444 67.8446 534.375L73.0767 525.411C72.5267 524.777 71.7647 524.46 70.7906 524.46C69.7065 524.46 68.858 524.959 68.2453 525.957C67.6325 526.942 67.3261 528.46 67.3261 530.51ZM70.7906 536.561C71.8904 536.561 72.7467 536.068 73.3595 535.083C73.9722 534.085 74.2786 532.561 74.2786 530.51C74.2786 528.77 74.0822 527.421 73.6894 526.463L68.4574 535.508C69.023 536.21 69.8008 536.561 70.7906 536.561Z" fill="url(#paint21_linear_167_180)" fill-opacity="0.6"/>
<path d="M72.2046 559.525H75.6691V560.597H66.6898V559.525H70.6963V548.153L66.8784 550.115L66.2185 549.205L70.932 546.696H72.2046V559.525Z" fill="url(#paint22_linear_167_180)" fill-opacity="0.6"/>
<path d="M70.7906 569.619C72.4718 569.619 73.7444 570.233 74.6086 571.461C75.4884 572.675 75.9283 574.442 75.9283 576.763C75.9283 579.083 75.4884 580.857 74.6086 582.084C73.7444 583.312 72.4718 583.926 70.7906 583.926C69.1251 583.926 67.8525 583.312 66.9726 582.084C66.0928 580.857 65.6528 579.083 65.6528 576.763C65.6528 574.456 66.0928 572.688 66.9726 571.461C67.8525 570.233 69.1251 569.619 70.7906 569.619ZM67.3261 576.763C67.3261 578.408 67.499 579.697 67.8446 580.627L73.0767 571.663C72.5267 571.029 71.7647 570.712 70.7906 570.712C69.7065 570.712 68.858 571.211 68.2453 572.21C67.6325 573.194 67.3261 574.712 67.3261 576.763ZM70.7906 582.813C71.8904 582.813 72.7467 582.32 73.3595 581.336C73.9722 580.337 74.2786 578.813 74.2786 576.763C74.2786 575.022 74.0822 573.673 73.6894 572.715L68.4574 581.761C69.023 582.462 69.8008 582.813 70.7906 582.813Z" fill="url(#paint23_linear_167_180)" fill-opacity="0.6"/>
<path d="M72.2046 605.777H75.6691V606.85H66.6898V605.777H70.6963V594.405L66.8784 596.368L66.2185 595.457L70.932 592.948H72.2046V605.777Z" fill="url(#paint24_linear_167_180)" fill-opacity="0.6"/>
<path d="M72.2046 628.903H75.6691V629.976H66.6898V628.903H70.6963V617.531L66.8784 619.494L66.2185 618.583L70.932 616.074H72.2046V628.903Z" fill="url(#paint25_linear_167_180)" fill-opacity="0.6"/>
<path d="M5.13776 361.484C6.81892 361.484 8.09157 362.098 8.95572 363.325C9.83558 364.54 10.2755 366.307 10.2755 368.627C10.2755 370.947 9.83558 372.721 8.95572 373.949C8.09157 375.177 6.81892 375.79 5.13776 375.79C3.47231 375.79 2.19965 375.177 1.31979 373.949C0.43993 372.721 0 370.947 0 368.627C0 366.32 0.43993 364.553 1.31979 363.325C2.19965 362.098 3.47231 361.484 5.13776 361.484ZM1.67331 368.627C1.67331 370.273 1.84614 371.561 2.19179 372.492L7.42382 363.528C6.87391 362.894 6.11189 362.577 5.13776 362.577C4.05364 362.577 3.20521 363.076 2.59245 364.074C1.97969 365.059 1.67331 366.577 1.67331 368.627ZM5.13776 374.677C6.23758 374.677 7.09387 374.185 7.70663 373.2C8.31939 372.202 8.62577 370.678 8.62577 368.627C8.62577 366.887 8.42938 365.538 8.03658 364.58L2.80455 373.625C3.37018 374.327 4.14791 374.677 5.13776 374.677Z" fill="url(#paint26_linear_167_180)" fill-opacity="0.6"/>
<path d="M5.13776 384.61C6.81892 384.61 8.09157 385.224 8.95572 386.452C9.83558 387.666 10.2755 389.433 10.2755 391.753C10.2755 394.074 9.83558 395.848 8.95572 397.075C8.09157 398.303 6.81892 398.917 5.13776 398.917C3.47231 398.917 2.19965 398.303 1.31979 397.075C0.43993 395.848 0 394.074 0 391.753C0 389.446 0.43993 387.679 1.31979 386.452C2.19965 385.224 3.47231 384.61 5.13776 384.61ZM1.67331 391.753C1.67331 393.399 1.84614 394.687 2.19179 395.618L7.42382 386.654C6.87391 386.02 6.11189 385.703 5.13776 385.703C4.05364 385.703 3.20521 386.202 2.59245 387.2C1.97969 388.185 1.67331 389.703 1.67331 391.753ZM5.13776 397.804C6.23758 397.804 7.09387 397.311 7.70663 396.326C8.31939 395.328 8.62577 393.804 8.62577 391.753C8.62577 390.013 8.42938 388.664 8.03658 387.706L2.80455 396.751C3.37018 397.453 4.14791 397.804 5.13776 397.804Z" fill="url(#paint27_linear_167_180)" fill-opacity="0.6"/>
<path d="M6.55182 420.768H10.0163V421.84H1.03698V420.768H5.04348V409.396L1.22552 411.358L0.565625 410.448L5.27916 407.939H6.55182V420.768Z" fill="url(#paint28_linear_167_180)" fill-opacity="0.6"/>
<path d="M5.13776 430.862C6.81892 430.862 8.09157 431.476 8.95572 432.704C9.83558 433.918 10.2755 435.685 10.2755 438.006C10.2755 440.326 9.83558 442.1 8.95572 443.327C8.09157 444.555 6.81892 445.169 5.13776 445.169C3.47231 445.169 2.19965 444.555 1.31979 443.327C0.43993 442.1 0 440.326 0 438.006C0 435.699 0.43993 433.931 1.31979 432.704C2.19965 431.476 3.47231 430.862 5.13776 430.862ZM1.67331 438.006C1.67331 439.651 1.84614 440.94 2.19179 441.87L7.42382 432.906C6.87391 432.272 6.11189 431.955 5.13776 431.955C4.05364 431.955 3.20521 432.454 2.59245 433.453C1.97969 434.437 1.67331 435.955 1.67331 438.006ZM5.13776 444.056C6.23758 444.056 7.09387 443.564 7.70663 442.579C8.31939 441.58 8.62577 440.056 8.62577 438.006C8.62577 436.265 8.42938 434.916 8.03658 433.958L2.80455 443.004C3.37018 443.705 4.14791 444.056 5.13776 444.056Z" fill="url(#paint29_linear_167_180)" fill-opacity="0.6"/>
<path d="M6.55182 467.02H10.0163V468.093H1.03698V467.02H5.04348V455.648L1.22552 457.611L0.565625 456.7L5.27916 454.191H6.55182V467.02Z" fill="url(#paint30_linear_167_180)" fill-opacity="0.6"/>
<path d="M6.55182 490.146H10.0163V491.219H1.03698V490.146H5.04348V478.774L1.22552 480.737L0.565625 479.826L5.27916 477.317H6.55182V490.146Z" fill="url(#paint31_linear_167_180)" fill-opacity="0.6"/>
<path d="M50.3204 328.263H53.7848V329.336H44.8055V328.263H48.812V316.891L44.9941 318.854L44.3342 317.943L49.0477 315.434H50.3204V328.263Z" fill="url(#paint32_linear_167_180)" fill-opacity="0.6"/>
<path d="M48.9063 338.358C50.5875 338.358 51.8601 338.972 52.7243 340.199C53.6041 341.413 54.0441 343.181 54.0441 345.501C54.0441 347.821 53.6041 349.595 52.7243 350.823C51.8601 352.05 50.5875 352.664 48.9063 352.664C47.2409 352.664 45.9682 352.05 45.0883 350.823C44.2085 349.595 43.7686 347.821 43.7686 345.501C43.7686 343.194 44.2085 341.427 45.0883 340.199C45.9682 338.972 47.2409 338.358 48.9063 338.358ZM45.4419 345.501C45.4419 347.147 45.6147 348.435 45.9604 349.366L51.1924 340.402C50.6425 339.768 49.8804 339.451 48.9063 339.451C47.8222 339.451 46.9738 339.95 46.361 340.948C45.7482 341.933 45.4419 343.45 45.4419 345.501ZM48.9063 351.551C50.0061 351.551 50.8624 351.059 51.4752 350.074C52.088 349.076 52.3943 347.551 52.3943 345.501C52.3943 343.761 52.1979 342.412 51.8051 341.454L46.5731 350.499C47.1387 351.201 47.9165 351.551 48.9063 351.551Z" fill="url(#paint33_linear_167_180)" fill-opacity="0.6"/>
<path d="M50.3204 374.516H53.7848V375.588H44.8055V374.516H48.812V363.143L44.9941 365.106L44.3342 364.195L49.0477 361.686H50.3204V374.516Z" fill="url(#paint34_linear_167_180)" fill-opacity="0.6"/>
<path d="M50.3204 397.642H53.7848V398.714H44.8055V397.642H48.812V386.269L44.9941 388.232L44.3342 387.322L49.0477 384.812H50.3204V397.642Z" fill="url(#paint35_linear_167_180)" fill-opacity="0.6"/>
<path d="M48.9063 407.736C50.5875 407.736 51.8601 408.35 52.7243 409.578C53.6041 410.792 54.0441 412.559 54.0441 414.879C54.0441 417.2 53.6041 418.974 52.7243 420.201C51.8601 421.429 50.5875 422.043 48.9063 422.043C47.2409 422.043 45.9682 421.429 45.0883 420.201C44.2085 418.974 43.7686 417.2 43.7686 414.879C43.7686 412.573 44.2085 410.805 45.0883 409.578C45.9682 408.35 47.2409 407.736 48.9063 407.736ZM45.4419 414.879C45.4419 416.525 45.6147 417.813 45.9604 418.744L51.1924 409.78C50.6425 409.146 49.8804 408.829 48.9063 408.829C47.8222 408.829 46.9738 409.328 46.361 410.326C45.7482 411.311 45.4419 412.829 45.4419 414.879ZM48.9063 420.93C50.0061 420.93 50.8624 420.437 51.4752 419.453C52.088 418.454 52.3943 416.93 52.3943 414.879C52.3943 413.139 52.1979 411.79 51.8051 410.832L46.5731 419.878C47.1387 420.579 47.9165 420.93 48.9063 420.93Z" fill="url(#paint36_linear_167_180)" fill-opacity="0.6"/>
<path d="M50.3204 443.894H53.7848V444.967H44.8055V443.894H48.812V432.522L44.9941 434.485L44.3342 433.574L49.0477 431.065H50.3204V443.894Z" fill="url(#paint37_linear_167_180)" fill-opacity="0.6"/>
<path d="M50.3204 467.02H53.7848V468.093H44.8055V467.02H48.812V455.648L44.9941 457.611L44.3342 456.7L49.0477 454.191H50.3204V467.02Z" fill="url(#paint38_linear_167_180)" fill-opacity="0.6"/>
<path d="M48.9063 477.115C50.5875 477.115 51.8601 477.729 52.7243 478.956C53.6041 480.17 54.0441 481.938 54.0441 484.258C54.0441 486.578 53.6041 488.352 52.7243 489.58C51.8601 490.807 50.5875 491.421 48.9063 491.421C47.2409 491.421 45.9682 490.807 45.0883 489.58C44.2085 488.352 43.7686 486.578 43.7686 484.258C43.7686 481.951 44.2085 480.184 45.0883 478.956C45.9682 477.729 47.2409 477.115 48.9063 477.115ZM45.4419 484.258C45.4419 485.904 45.6147 487.192 45.9604 488.123L51.1924 479.159C50.6425 478.524 49.8804 478.207 48.9063 478.207C47.8222 478.207 46.9738 478.707 46.361 479.705C45.7482 480.69 45.4419 482.207 45.4419 484.258ZM48.9063 490.308C50.0061 490.308 50.8624 489.816 51.4752 488.831C52.088 487.833 52.3943 486.308 52.3943 484.258C52.3943 482.518 52.1979 481.169 51.8051 480.211L46.5731 489.256C47.1387 489.957 47.9165 490.308 48.9063 490.308Z" fill="url(#paint39_linear_167_180)" fill-opacity="0.6"/>
<path d="M50.3204 513.273H53.7848V514.345H44.8055V513.273H48.812V501.9L44.9941 503.863L44.3342 502.952L49.0477 500.443H50.3204V513.273Z" fill="url(#paint40_linear_167_180)" fill-opacity="0.6"/>
<path d="M48.9063 523.367C50.5875 523.367 51.8601 523.981 52.7243 525.209C53.6041 526.423 54.0441 528.19 54.0441 530.51C54.0441 532.83 53.6041 534.604 52.7243 535.832C51.8601 537.06 50.5875 537.674 48.9063 537.674C47.2409 537.674 45.9682 537.06 45.0883 535.832C44.2085 534.604 43.7686 532.83 43.7686 530.51C43.7686 528.203 44.2085 526.436 45.0883 525.209C45.9682 523.981 47.2409 523.367 48.9063 523.367ZM45.4419 530.51C45.4419 532.156 45.6147 533.444 45.9604 534.375L51.1924 525.411C50.6425 524.777 49.8804 524.46 48.9063 524.46C47.8222 524.46 46.9738 524.959 46.361 525.957C45.7482 526.942 45.4419 528.46 45.4419 530.51ZM48.9063 536.561C50.0061 536.561 50.8624 536.068 51.4752 535.083C52.088 534.085 52.3943 532.561 52.3943 530.51C52.3943 528.77 52.1979 527.421 51.8051 526.463L46.5731 535.508C47.1387 536.21 47.9165 536.561 48.9063 536.561Z" fill="url(#paint41_linear_167_180)" fill-opacity="0.6"/>
<path d="M92.6749 315.232C94.356 315.232 95.6287 315.845 96.4928 317.073C97.3727 318.287 97.8126 320.054 97.8126 322.375C97.8126 324.695 97.3727 326.469 96.4928 327.697C95.6287 328.924 94.356 329.538 92.6749 329.538C91.0094 329.538 89.7368 328.924 88.8569 327.697C87.977 326.469 87.5371 324.695 87.5371 322.375C87.5371 320.068 87.977 318.301 88.8569 317.073C89.7368 315.845 91.0094 315.232 92.6749 315.232ZM89.2104 322.375C89.2104 324.021 89.3833 325.309 89.7289 326.24L94.9609 317.275C94.411 316.641 93.649 316.324 92.6749 316.324C91.5908 316.324 90.7423 316.823 90.1296 317.822C89.5168 318.807 89.2104 320.324 89.2104 322.375ZM92.6749 328.425C93.7747 328.425 94.631 327.933 95.2437 326.948C95.8565 325.95 96.1629 324.425 96.1629 322.375C96.1629 320.634 95.9665 319.285 95.5737 318.328L90.3417 327.373C90.9073 328.074 91.685 328.425 92.6749 328.425Z" fill="url(#paint42_linear_167_180)" fill-opacity="0.6"/>
<path d="M94.0889 351.389H97.5534V352.462H88.5741V351.389H92.5806V340.017L88.7626 341.98L88.1027 341.069L92.8163 338.56H94.0889V351.389Z" fill="url(#paint43_linear_167_180)" fill-opacity="0.6"/>
<path d="M94.0889 374.516H97.5534V375.588H88.5741V374.516H92.5806V363.143L88.7626 365.106L88.1027 364.195L92.8163 361.686H94.0889V374.516Z" fill="url(#paint44_linear_167_180)" fill-opacity="0.6"/>
<path d="M92.6749 384.61C94.356 384.61 95.6287 385.224 96.4928 386.452C97.3727 387.666 97.8126 389.433 97.8126 391.753C97.8126 394.074 97.3727 395.848 96.4928 397.075C95.6287 398.303 94.356 398.917 92.6749 398.917C91.0094 398.917 89.7368 398.303 88.8569 397.075C87.977 395.848 87.5371 394.074 87.5371 391.753C87.5371 389.446 87.977 387.679 88.8569 386.452C89.7368 385.224 91.0094 384.61 92.6749 384.61ZM89.2104 391.753C89.2104 393.399 89.3833 394.687 89.7289 395.618L94.9609 386.654C94.411 386.02 93.649 385.703 92.6749 385.703C91.5908 385.703 90.7423 386.202 90.1296 387.2C89.5168 388.185 89.2104 389.703 89.2104 391.753ZM92.6749 397.804C93.7747 397.804 94.631 397.311 95.2437 396.326C95.8565 395.328 96.1629 393.804 96.1629 391.753C96.1629 390.013 95.9665 388.664 95.5737 387.706L90.3417 396.751C90.9073 397.453 91.685 397.804 92.6749 397.804Z" fill="url(#paint45_linear_167_180)" fill-opacity="0.6"/>
<path d="M92.6749 407.736C94.356 407.736 95.6287 408.35 96.4928 409.578C97.3727 410.792 97.8126 412.559 97.8126 414.879C97.8126 417.2 97.3727 418.974 96.4928 420.201C95.6287 421.429 94.356 422.043 92.6749 422.043C91.0094 422.043 89.7368 421.429 88.8569 420.201C87.977 418.974 87.5371 417.2 87.5371 414.879C87.5371 412.573 87.977 410.805 88.8569 409.578C89.7368 408.35 91.0094 407.736 92.6749 407.736ZM89.2104 414.879C89.2104 416.525 89.3833 417.813 89.7289 418.744L94.9609 409.78C94.411 409.146 93.649 408.829 92.6749 408.829C91.5908 408.829 90.7423 409.328 90.1296 410.326C89.5168 411.311 89.2104 412.829 89.2104 414.879ZM92.6749 420.93C93.7747 420.93 94.631 420.437 95.2437 419.453C95.8565 418.454 96.1629 416.93 96.1629 414.879C96.1629 413.139 95.9665 411.79 95.5737 410.832L90.3417 419.878C90.9073 420.579 91.685 420.93 92.6749 420.93Z" fill="url(#paint46_linear_167_180)" fill-opacity="0.6"/>
<g opacity="0.6">
<path d="M1081.46 0C1083.07 0 1084.28 0.589042 1085.11 1.76713C1085.95 2.93227 1086.37 4.62819 1086.37 6.8549C1086.37 9.08161 1085.95 10.784 1085.11 11.9621C1084.28 13.1402 1083.07 13.7292 1081.46 13.7292C1079.88 13.7292 1078.66 13.1402 1077.82 11.9621C1076.98 10.784 1076.56 9.08161 1076.56 6.8549C1076.56 4.64114 1076.98 2.94521 1077.82 1.76713C1078.66 0.589042 1079.88 0 1081.46 0ZM1078.16 6.8549C1078.16 8.43431 1078.32 9.67065 1078.65 10.5639L1083.65 1.96132C1083.12 1.35286 1082.39 1.04863 1081.46 1.04863C1080.43 1.04863 1079.62 1.52763 1079.04 2.48563C1078.45 3.43069 1078.16 4.88711 1078.16 6.8549ZM1081.46 12.6612C1082.51 12.6612 1083.33 12.1886 1083.91 11.2436C1084.5 10.2856 1084.79 8.82269 1084.79 6.8549C1084.79 5.18487 1084.6 3.89027 1084.23 2.9711L1079.24 11.6514C1079.78 12.3246 1080.52 12.6612 1081.46 12.6612Z" fill="url(#paint47_linear_167_180)"/>
<path d="M1082.81 34.6989H1086.12V35.7281H1077.55V34.6989H1081.37V23.7855L1077.73 25.6691L1077.1 24.7953L1081.6 22.3873H1082.81V34.6989Z" fill="url(#paint48_linear_167_180)"/>
<path d="M1081.46 44.3862C1083.07 44.3862 1084.28 44.9753 1085.11 46.1534C1085.95 47.3185 1086.37 49.0144 1086.37 51.2411C1086.37 53.4678 1085.95 55.1702 1085.11 56.3483C1084.28 57.5264 1083.07 58.1155 1081.46 58.1155C1079.88 58.1155 1078.66 57.5264 1077.82 56.3483C1076.98 55.1702 1076.56 53.4678 1076.56 51.2411C1076.56 49.0274 1076.98 47.3314 1077.82 46.1534C1078.66 44.9753 1079.88 44.3862 1081.46 44.3862ZM1078.16 51.2411C1078.16 52.8205 1078.32 54.0569 1078.65 54.9502L1083.65 46.3476C1083.12 45.7391 1082.39 45.4349 1081.46 45.4349C1080.43 45.4349 1079.62 45.9139 1079.04 46.8719C1078.45 47.8169 1078.16 49.2733 1078.16 51.2411ZM1081.46 57.0474C1082.51 57.0474 1083.33 56.5749 1083.91 55.6298C1084.5 54.6718 1084.79 53.2089 1084.79 51.2411C1084.79 49.5711 1084.6 48.2765 1084.23 47.3573L1079.24 56.0376C1079.78 56.7108 1080.52 57.0474 1081.46 57.0474Z" fill="url(#paint49_linear_167_180)"/>
<path d="M1082.81 79.0852H1086.12V80.1144H1077.55V79.0852H1081.37V68.1717L1077.73 70.0554L1077.1 69.1815L1081.6 66.7735H1082.81V79.0852Z" fill="url(#paint50_linear_167_180)"/>
<path d="M1082.81 101.278H1086.12V102.308H1077.55V101.278H1081.37V90.3648L1077.73 92.2485L1077.1 91.3746L1081.6 88.9667H1082.81V101.278Z" fill="url(#paint51_linear_167_180)"/>
<path d="M1081.46 110.966C1083.07 110.966 1084.28 111.555 1085.11 112.733C1085.95 113.898 1086.37 115.594 1086.37 117.82C1086.37 120.047 1085.95 121.75 1085.11 122.928C1084.28 124.106 1083.07 124.695 1081.46 124.695C1079.88 124.695 1078.66 124.106 1077.82 122.928C1076.98 121.75 1076.56 120.047 1076.56 117.82C1076.56 115.607 1076.98 113.911 1077.82 112.733C1078.66 111.555 1079.88 110.966 1081.46 110.966ZM1078.16 117.82C1078.16 119.4 1078.32 120.636 1078.65 121.53L1083.65 112.927C1083.12 112.318 1082.39 112.014 1081.46 112.014C1080.43 112.014 1079.62 112.493 1079.04 113.451C1078.45 114.396 1078.16 115.853 1078.16 117.82ZM1081.46 123.627C1082.51 123.627 1083.33 123.154 1083.91 122.209C1084.5 121.251 1084.79 119.788 1084.79 117.82C1084.79 116.15 1084.6 114.856 1084.23 113.937L1079.24 122.617C1079.78 123.29 1080.52 123.627 1081.46 123.627Z" fill="url(#paint52_linear_167_180)"/>
<path d="M1082.81 145.665H1086.12V146.694H1077.55V145.665H1081.37V134.751L1077.73 136.635L1077.1 135.761L1081.6 133.353H1082.81V145.665Z" fill="url(#paint53_linear_167_180)"/>
<path d="M1081.46 155.352C1083.07 155.352 1084.28 155.941 1085.11 157.119C1085.95 158.284 1086.37 159.98 1086.37 162.207C1086.37 164.433 1085.95 166.136 1085.11 167.314C1084.28 168.492 1083.07 169.081 1081.46 169.081C1079.88 169.081 1078.66 168.492 1077.82 167.314C1076.98 166.136 1076.56 164.433 1076.56 162.207C1076.56 159.993 1076.98 158.297 1077.82 157.119C1078.66 155.941 1079.88 155.352 1081.46 155.352ZM1078.16 162.207C1078.16 163.786 1078.32 165.022 1078.65 165.916L1083.65 157.313C1083.12 156.705 1082.39 156.4 1081.46 156.4C1080.43 156.4 1079.62 156.879 1079.04 157.837C1078.45 158.783 1078.16 160.239 1078.16 162.207ZM1081.46 168.013C1082.51 168.013 1083.33 167.54 1083.91 166.595C1084.5 165.637 1084.79 164.175 1084.79 162.207C1084.79 160.537 1084.6 159.242 1084.23 158.323L1079.24 167.003C1079.78 167.676 1080.52 168.013 1081.46 168.013Z" fill="url(#paint54_linear_167_180)"/>
<path d="M1081.46 177.545C1083.07 177.545 1084.28 178.134 1085.11 179.312C1085.95 180.477 1086.37 182.173 1086.37 184.4C1086.37 186.627 1085.95 188.329 1085.11 189.507C1084.28 190.685 1083.07 191.274 1081.46 191.274C1079.88 191.274 1078.66 190.685 1077.82 189.507C1076.98 188.329 1076.56 186.627 1076.56 184.4C1076.56 182.186 1076.98 180.49 1077.82 179.312C1078.66 178.134 1079.88 177.545 1081.46 177.545ZM1078.16 184.4C1078.16 185.979 1078.32 187.216 1078.65 188.109L1083.65 179.506C1083.12 178.898 1082.39 178.594 1081.46 178.594C1080.43 178.594 1079.62 179.073 1079.04 180.031C1078.45 180.976 1078.16 182.432 1078.16 184.4ZM1081.46 190.206C1082.51 190.206 1083.33 189.734 1083.91 188.789C1084.5 187.831 1084.79 186.368 1084.79 184.4C1084.79 182.73 1084.6 181.435 1084.23 180.516L1079.24 189.196C1079.78 189.87 1080.52 190.206 1081.46 190.206Z" fill="url(#paint55_linear_167_180)"/>
<path d="M1082.81 212.244H1086.12V213.273H1077.55V212.244H1081.37V201.33L1077.73 203.214L1077.1 202.34L1081.6 199.932H1082.81V212.244Z" fill="url(#paint56_linear_167_180)"/>
<path d="M1081.46 221.931C1083.07 221.931 1084.28 222.52 1085.11 223.698C1085.95 224.863 1086.37 226.559 1086.37 228.786C1086.37 231.013 1085.95 232.715 1085.11 233.893C1084.28 235.071 1083.07 235.66 1081.46 235.66C1079.88 235.66 1078.66 235.071 1077.82 233.893C1076.98 232.715 1076.56 231.013 1076.56 228.786C1076.56 226.572 1076.98 224.876 1077.82 223.698C1078.66 222.52 1079.88 221.931 1081.46 221.931ZM1078.16 228.786C1078.16 230.365 1078.32 231.602 1078.65 232.495L1083.65 223.893C1083.12 223.284 1082.39 222.98 1081.46 222.98C1080.43 222.98 1079.62 223.459 1079.04 224.417C1078.45 225.362 1078.16 226.818 1078.16 228.786ZM1081.46 234.592C1082.51 234.592 1083.33 234.12 1083.91 233.175C1084.5 232.217 1084.79 230.754 1084.79 228.786C1084.79 227.116 1084.6 225.821 1084.23 224.902L1079.24 233.583C1079.78 234.256 1080.52 234.592 1081.46 234.592Z" fill="url(#paint57_linear_167_180)"/>
<path d="M1082.81 256.63H1086.12V257.659H1077.55V256.63H1081.37V245.717L1077.73 247.6L1077.1 246.726L1081.6 244.318H1082.81V256.63Z" fill="url(#paint58_linear_167_180)"/>
<path d="M1082.81 278.823H1086.12V279.852H1077.55V278.823H1081.37V267.91L1077.73 269.793L1077.1 268.92L1081.6 266.512H1082.81V278.823Z" fill="url(#paint59_linear_167_180)"/>
<path d="M1123.22 44.3862C1124.82 44.3862 1126.04 44.9753 1126.86 46.1534C1127.7 47.3185 1128.12 49.0144 1128.12 51.2411C1128.12 53.4678 1127.7 55.1702 1126.86 56.3483C1126.04 57.5264 1124.82 58.1155 1123.22 58.1155C1121.63 58.1155 1120.42 57.5264 1119.58 56.3483C1118.74 55.1702 1118.32 53.4678 1118.32 51.2411C1118.32 49.0274 1118.74 47.3314 1119.58 46.1534C1120.42 44.9753 1121.63 44.3862 1123.22 44.3862ZM1119.92 51.2411C1119.92 52.8205 1120.08 54.0569 1120.41 54.9502L1125.4 46.3476C1124.88 45.7391 1124.15 45.4349 1123.22 45.4349C1122.19 45.4349 1121.38 45.9139 1120.79 46.8719C1120.21 47.8169 1119.92 49.2733 1119.92 51.2411ZM1123.22 57.0474C1124.27 57.0474 1125.09 56.5749 1125.67 55.6298C1126.26 54.6718 1126.55 53.2089 1126.55 51.2411C1126.55 49.5711 1126.36 48.2765 1125.99 47.3573L1120.99 56.0376C1121.53 56.7108 1122.28 57.0474 1123.22 57.0474Z" fill="url(#paint60_linear_167_180)"/>
<path d="M1124.57 79.0852H1127.87V80.1144H1119.31V79.0852H1123.13V68.1717L1119.49 70.0554L1118.86 69.1815L1123.36 66.7735H1124.57V79.0852Z" fill="url(#paint61_linear_167_180)"/>
<path d="M1123.22 88.7725C1124.82 88.7725 1126.04 89.3615 1126.86 90.5396C1127.7 91.7047 1128.12 93.4007 1128.12 95.6274C1128.12 97.8541 1127.7 99.5565 1126.86 100.735C1126.04 101.913 1124.82 102.502 1123.22 102.502C1121.63 102.502 1120.42 101.913 1119.58 100.735C1118.74 99.5565 1118.32 97.8541 1118.32 95.6274C1118.32 93.4136 1118.74 91.7177 1119.58 90.5396C1120.42 89.3615 1121.63 88.7725 1123.22 88.7725ZM1119.92 95.6274C1119.92 97.2068 1120.08 98.4431 1120.41 99.3364L1125.4 90.7338C1124.88 90.1253 1124.15 89.8211 1123.22 89.8211C1122.19 89.8211 1121.38 90.3001 1120.79 91.2581C1120.21 92.2032 1119.92 93.6596 1119.92 95.6274ZM1123.22 101.434C1124.27 101.434 1125.09 100.961 1125.67 100.016C1126.26 99.0581 1126.55 97.5952 1126.55 95.6274C1126.55 93.9573 1126.36 92.6627 1125.99 91.7436L1120.99 100.424C1121.53 101.097 1122.28 101.434 1123.22 101.434Z" fill="url(#paint62_linear_167_180)"/>
<path d="M1123.22 110.966C1124.82 110.966 1126.04 111.555 1126.86 112.733C1127.7 113.898 1128.12 115.594 1128.12 117.82C1128.12 120.047 1127.7 121.75 1126.86 122.928C1126.04 124.106 1124.82 124.695 1123.22 124.695C1121.63 124.695 1120.42 124.106 1119.58 122.928C1118.74 121.75 1118.32 120.047 1118.32 117.82C1118.32 115.607 1118.74 113.911 1119.58 112.733C1120.42 111.555 1121.63 110.966 1123.22 110.966ZM1119.92 117.82C1119.92 119.4 1120.08 120.636 1120.41 121.53L1125.4 112.927C1124.88 112.318 1124.15 112.014 1123.22 112.014C1122.19 112.014 1121.38 112.493 1120.79 113.451C1120.21 114.396 1119.92 115.853 1119.92 117.82ZM1123.22 123.627C1124.27 123.627 1125.09 123.154 1125.67 122.209C1126.26 121.251 1126.55 119.788 1126.55 117.82C1126.55 116.15 1126.36 114.856 1125.99 113.937L1120.99 122.617C1121.53 123.29 1122.28 123.627 1123.22 123.627Z" fill="url(#paint63_linear_167_180)"/>
<path d="M1124.57 145.665H1127.87V146.694H1119.31V145.665H1123.13V134.751L1119.49 136.635L1118.86 135.761L1123.36 133.353H1124.57V145.665Z" fill="url(#paint64_linear_167_180)"/>
<path d="M1123.22 155.352C1124.82 155.352 1126.04 155.941 1126.86 157.119C1127.7 158.284 1128.12 159.98 1128.12 162.207C1128.12 164.433 1127.7 166.136 1126.86 167.314C1126.04 168.492 1124.82 169.081 1123.22 169.081C1121.63 169.081 1120.42 168.492 1119.58 167.314C1118.74 166.136 1118.32 164.433 1118.32 162.207C1118.32 159.993 1118.74 158.297 1119.58 157.119C1120.42 155.941 1121.63 155.352 1123.22 155.352ZM1119.92 162.207C1119.92 163.786 1120.08 165.022 1120.41 165.916L1125.4 157.313C1124.88 156.705 1124.15 156.4 1123.22 156.4C1122.19 156.4 1121.38 156.879 1120.79 157.837C1120.21 158.783 1119.92 160.239 1119.92 162.207ZM1123.22 168.013C1124.27 168.013 1125.09 167.54 1125.67 166.595C1126.26 165.637 1126.55 164.175 1126.55 162.207C1126.55 160.537 1126.36 159.242 1125.99 158.323L1120.99 167.003C1121.53 167.676 1122.28 168.013 1123.22 168.013Z" fill="url(#paint65_linear_167_180)"/>
<path d="M1124.57 190.051H1127.87V191.08H1119.31V190.051H1123.13V179.137L1119.49 181.021L1118.86 180.147L1123.36 177.739H1124.57V190.051Z" fill="url(#paint66_linear_167_180)"/>
<path d="M1123.22 199.738C1124.82 199.738 1126.04 200.327 1126.86 201.505C1127.7 202.67 1128.12 204.366 1128.12 206.593C1128.12 208.82 1127.7 210.522 1126.86 211.7C1126.04 212.878 1124.82 213.467 1123.22 213.467C1121.63 213.467 1120.42 212.878 1119.58 211.7C1118.74 210.522 1118.32 208.82 1118.32 206.593C1118.32 204.379 1118.74 202.683 1119.58 201.505C1120.42 200.327 1121.63 199.738 1123.22 199.738ZM1119.92 206.593C1119.92 208.172 1120.08 209.409 1120.41 210.302L1125.4 201.699C1124.88 201.091 1124.15 200.787 1123.22 200.787C1122.19 200.787 1121.38 201.266 1120.79 202.224C1120.21 203.169 1119.92 204.625 1119.92 206.593ZM1123.22 212.399C1124.27 212.399 1125.09 211.927 1125.67 210.982C1126.26 210.024 1126.55 208.561 1126.55 206.593C1126.55 204.923 1126.36 203.628 1125.99 202.709L1120.99 211.389C1121.53 212.063 1122.28 212.399 1123.22 212.399Z" fill="url(#paint67_linear_167_180)"/>
<path d="M1123.22 221.931C1124.82 221.931 1126.04 222.52 1126.86 223.698C1127.7 224.863 1128.12 226.559 1128.12 228.786C1128.12 231.013 1127.7 232.715 1126.86 233.893C1126.04 235.071 1124.82 235.66 1123.22 235.66C1121.63 235.66 1120.42 235.071 1119.58 233.893C1118.74 232.715 1118.32 231.013 1118.32 228.786C1118.32 226.572 1118.74 224.876 1119.58 223.698C1120.42 222.52 1121.63 221.931 1123.22 221.931ZM1119.92 228.786C1119.92 230.365 1120.08 231.602 1120.41 232.495L1125.4 223.893C1124.88 223.284 1124.15 222.98 1123.22 222.98C1122.19 222.98 1121.38 223.459 1120.79 224.417C1120.21 225.362 1119.92 226.818 1119.92 228.786ZM1123.22 234.592C1124.27 234.592 1125.09 234.12 1125.67 233.175C1126.26 232.217 1126.55 230.754 1126.55 228.786C1126.55 227.116 1126.36 225.821 1125.99 224.902L1120.99 233.583C1121.53 234.256 1122.28 234.592 1123.22 234.592Z" fill="url(#paint68_linear_167_180)"/>
<path d="M1124.57 256.63H1127.87V257.659H1119.31V256.63H1123.13V245.717L1119.49 247.6L1118.86 246.726L1123.36 244.318H1124.57V256.63Z" fill="url(#paint69_linear_167_180)"/>
<path d="M1123.22 266.317C1124.82 266.317 1126.04 266.906 1126.86 268.085C1127.7 269.25 1128.12 270.946 1128.12 273.172C1128.12 275.399 1127.7 277.101 1126.86 278.279C1126.04 279.458 1124.82 280.047 1123.22 280.047C1121.63 280.047 1120.42 279.458 1119.58 278.279C1118.74 277.101 1118.32 275.399 1118.32 273.172C1118.32 270.959 1118.74 269.263 1119.58 268.085C1120.42 266.906 1121.63 266.317 1123.22 266.317ZM1119.92 273.172C1119.92 274.752 1120.08 275.988 1120.41 276.881L1125.4 268.279C1124.88 267.67 1124.15 267.366 1123.22 267.366C1122.19 267.366 1121.38 267.845 1120.79 268.803C1120.21 269.748 1119.92 271.205 1119.92 273.172ZM1123.22 278.979C1124.27 278.979 1125.09 278.506 1125.67 277.561C1126.26 276.603 1126.55 275.14 1126.55 273.172C1126.55 271.502 1126.36 270.208 1125.99 269.289L1120.99 277.969C1121.53 278.642 1122.28 278.979 1123.22 278.979Z" fill="url(#paint70_linear_167_180)"/>
<path d="M1124.57 301.016H1127.87V302.046H1119.31V301.016H1123.13V290.103L1119.49 291.987L1118.86 291.113L1123.36 288.705H1124.57V301.016Z" fill="url(#paint71_linear_167_180)"/>
<path d="M1124.57 323.209H1127.87V324.239H1119.31V323.209H1123.13V312.296L1119.49 314.18L1118.86 313.306L1123.36 310.898H1124.57V323.209Z" fill="url(#paint72_linear_167_180)"/>
<path d="M1060.59 66.5794C1062.19 66.5794 1063.4 67.1684 1064.23 68.3465C1065.07 69.5116 1065.49 71.2075 1065.49 73.4343C1065.49 75.661 1065.07 77.3634 1064.23 78.5414C1063.4 79.7195 1062.19 80.3086 1060.59 80.3086C1059 80.3086 1057.78 79.7195 1056.94 78.5414C1056.1 77.3634 1055.68 75.661 1055.68 73.4343C1055.68 71.2205 1056.1 69.5246 1056.94 68.3465C1057.78 67.1684 1059 66.5794 1060.59 66.5794ZM1057.28 73.4343C1057.28 75.0137 1057.45 76.25 1057.78 77.1433L1062.77 68.5407C1062.24 67.9322 1061.52 67.628 1060.59 67.628C1059.55 67.628 1058.74 68.107 1058.16 69.065C1057.57 70.01 1057.28 71.4665 1057.28 73.4343ZM1060.59 79.2405C1061.64 79.2405 1062.45 78.768 1063.04 77.8229C1063.62 76.8649 1063.91 75.402 1063.91 73.4343C1063.91 71.7642 1063.73 70.4696 1063.35 69.5505L1058.36 78.2307C1058.9 78.9039 1059.64 79.2405 1060.59 79.2405Z" fill="url(#paint73_linear_167_180)"/>
<path d="M1060.59 88.7725C1062.19 88.7725 1063.4 89.3615 1064.23 90.5396C1065.07 91.7047 1065.49 93.4007 1065.49 95.6274C1065.49 97.8541 1065.07 99.5565 1064.23 100.735C1063.4 101.913 1062.19 102.502 1060.59 102.502C1059 102.502 1057.78 101.913 1056.94 100.735C1056.1 99.5565 1055.68 97.8541 1055.68 95.6274C1055.68 93.4136 1056.1 91.7177 1056.94 90.5396C1057.78 89.3615 1059 88.7725 1060.59 88.7725ZM1057.28 95.6274C1057.28 97.2068 1057.45 98.4431 1057.78 99.3364L1062.77 90.7338C1062.24 90.1253 1061.52 89.8211 1060.59 89.8211C1059.55 89.8211 1058.74 90.3001 1058.16 91.2581C1057.57 92.2032 1057.28 93.6596 1057.28 95.6274ZM1060.59 101.434C1061.64 101.434 1062.45 100.961 1063.04 100.016C1063.62 99.0581 1063.91 97.5952 1063.91 95.6274C1063.91 93.9573 1063.73 92.6627 1063.35 91.7436L1058.36 100.424C1058.9 101.097 1059.64 101.434 1060.59 101.434Z" fill="url(#paint74_linear_167_180)"/>
<path d="M1061.94 123.471H1065.24V124.501H1056.67V123.471H1060.5V112.558L1056.85 114.442L1056.22 113.568L1060.72 111.16H1061.94V123.471Z" fill="url(#paint75_linear_167_180)"/>
<path d="M1060.59 133.159C1062.19 133.159 1063.4 133.748 1064.23 134.926C1065.07 136.091 1065.49 137.787 1065.49 140.014C1065.49 142.24 1065.07 143.943 1064.23 145.121C1063.4 146.299 1062.19 146.888 1060.59 146.888C1059 146.888 1057.78 146.299 1056.94 145.121C1056.1 143.943 1055.68 142.24 1055.68 140.014C1055.68 137.8 1056.1 136.104 1056.94 134.926C1057.78 133.748 1059 133.159 1060.59 133.159ZM1057.28 140.014C1057.28 141.593 1057.45 142.829 1057.78 143.723L1062.77 135.12C1062.24 134.512 1061.52 134.207 1060.59 134.207C1059.55 134.207 1058.74 134.686 1058.16 135.644C1057.57 136.589 1057.28 138.046 1057.28 140.014ZM1060.59 145.82C1061.64 145.82 1062.45 145.347 1063.04 144.402C1063.62 143.444 1063.91 141.981 1063.91 140.014C1063.91 138.344 1063.73 137.049 1063.35 136.13L1058.36 144.81C1058.9 145.483 1059.64 145.82 1060.59 145.82Z" fill="url(#paint76_linear_167_180)"/>
<path d="M1061.94 167.858H1065.24V168.887H1056.67V167.858H1060.5V156.944L1056.85 158.828L1056.22 157.954L1060.72 155.546H1061.94V167.858Z" fill="url(#paint77_linear_167_180)"/>
<path d="M1061.94 190.051H1065.24V191.08H1056.67V190.051H1060.5V179.137L1056.85 181.021L1056.22 180.147L1060.72 177.739H1061.94V190.051Z" fill="url(#paint78_linear_167_180)"/>
<path d="M1103.69 34.6989H1107V35.7281H1098.43V34.6989H1102.25V23.7855L1098.61 25.6691L1097.98 24.7953L1102.48 22.3873H1103.69V34.6989Z" fill="url(#paint79_linear_167_180)"/>
<path d="M1102.34 44.3862C1103.95 44.3862 1105.16 44.9753 1105.98 46.1534C1106.82 47.3185 1107.24 49.0144 1107.24 51.2411C1107.24 53.4678 1106.82 55.1702 1105.98 56.3483C1105.16 57.5264 1103.95 58.1155 1102.34 58.1155C1100.75 58.1155 1099.54 57.5264 1098.7 56.3483C1097.86 55.1702 1097.44 53.4678 1097.44 51.2411C1097.44 49.0274 1097.86 47.3314 1098.7 46.1534C1099.54 44.9753 1100.75 44.3862 1102.34 44.3862ZM1099.04 51.2411C1099.04 52.8205 1099.2 54.0569 1099.53 54.9502L1104.52 46.3476C1104 45.7391 1103.27 45.4349 1102.34 45.4349C1101.31 45.4349 1100.5 45.9139 1099.91 46.8719C1099.33 47.8169 1099.04 49.2733 1099.04 51.2411ZM1102.34 57.0474C1103.39 57.0474 1104.21 56.5749 1104.79 55.6298C1105.38 54.6718 1105.67 53.2089 1105.67 51.2411C1105.67 49.5711 1105.48 48.2765 1105.11 47.3573L1100.12 56.0376C1100.66 56.7108 1101.4 57.0474 1102.34 57.0474Z" fill="url(#paint80_linear_167_180)"/>
<path d="M1103.69 79.0852H1107V80.1144H1098.43V79.0852H1102.25V68.1717L1098.61 70.0554L1097.98 69.1815L1102.48 66.7735H1103.69V79.0852Z" fill="url(#paint81_linear_167_180)"/>
<path d="M1103.69 101.278H1107V102.308H1098.43V101.278H1102.25V90.3648L1098.61 92.2485L1097.98 91.3746L1102.48 88.9667H1103.69V101.278Z" fill="url(#paint82_linear_167_180)"/>
<path d="M1102.34 110.966C1103.95 110.966 1105.16 111.555 1105.98 112.733C1106.82 113.898 1107.24 115.594 1107.24 117.82C1107.24 120.047 1106.82 121.75 1105.98 122.928C1105.16 124.106 1103.95 124.695 1102.34 124.695C1100.75 124.695 1099.54 124.106 1098.7 122.928C1097.86 121.75 1097.44 120.047 1097.44 117.82C1097.44 115.607 1097.86 113.911 1098.7 112.733C1099.54 111.555 1100.75 110.966 1102.34 110.966ZM1099.04 117.82C1099.04 119.4 1099.2 120.636 1099.53 121.53L1104.52 112.927C1104 112.318 1103.27 112.014 1102.34 112.014C1101.31 112.014 1100.5 112.493 1099.91 113.451C1099.33 114.396 1099.04 115.853 1099.04 117.82ZM1102.34 123.627C1103.39 123.627 1104.21 123.154 1104.79 122.209C1105.38 121.251 1105.67 119.788 1105.67 117.82C1105.67 116.15 1105.48 114.856 1105.11 113.937L1100.12 122.617C1100.66 123.29 1101.4 123.627 1102.34 123.627Z" fill="url(#paint83_linear_167_180)"/>
<path d="M1103.69 145.665H1107V146.694H1098.43V145.665H1102.25V134.751L1098.61 136.635L1097.98 135.761L1102.48 133.353H1103.69V145.665Z" fill="url(#paint84_linear_167_180)"/>
<path d="M1103.69 167.858H1107V168.887H1098.43V167.858H1102.25V156.944L1098.61 158.828L1097.98 157.954L1102.48 155.546H1103.69V167.858Z" fill="url(#paint85_linear_167_180)"/>
<path d="M1102.34 177.545C1103.95 177.545 1105.16 178.134 1105.98 179.312C1106.82 180.477 1107.24 182.173 1107.24 184.4C1107.24 186.627 1106.82 188.329 1105.98 189.507C1105.16 190.685 1103.95 191.274 1102.34 191.274C1100.75 191.274 1099.54 190.685 1098.7 189.507C1097.86 188.329 1097.44 186.627 1097.44 184.4C1097.44 182.186 1097.86 180.49 1098.7 179.312C1099.54 178.134 1100.75 177.545 1102.34 177.545ZM1099.04 184.4C1099.04 185.979 1099.2 187.216 1099.53 188.109L1104.52 179.506C1104 178.898 1103.27 178.594 1102.34 178.594C1101.31 178.594 1100.5 179.073 1099.91 180.031C1099.33 180.976 1099.04 182.432 1099.04 184.4ZM1102.34 190.206C1103.39 190.206 1104.21 189.734 1104.79 188.789C1105.38 187.831 1105.67 186.368 1105.67 184.4C1105.67 182.73 1105.48 181.435 1105.11 180.516L1100.12 189.196C1100.66 189.87 1101.4 190.206 1102.34 190.206Z" fill="url(#paint86_linear_167_180)"/>
<path d="M1103.69 212.244H1107V213.273H1098.43V212.244H1102.25V201.33L1098.61 203.214L1097.98 202.34L1102.48 199.932H1103.69V212.244Z" fill="url(#paint87_linear_167_180)"/>
<path d="M1102.34 221.931C1103.95 221.931 1105.16 222.52 1105.98 223.698C1106.82 224.863 1107.24 226.559 1107.24 228.786C1107.24 231.013 1106.82 232.715 1105.98 233.893C1105.16 235.071 1103.95 235.66 1102.34 235.66C1100.75 235.66 1099.54 235.071 1098.7 233.893C1097.86 232.715 1097.44 231.013 1097.44 228.786C1097.44 226.572 1097.86 224.876 1098.7 223.698C1099.54 222.52 1100.75 221.931 1102.34 221.931ZM1099.04 228.786C1099.04 230.365 1099.2 231.602 1099.53 232.495L1104.52 223.893C1104 223.284 1103.27 222.98 1102.34 222.98C1101.31 222.98 1100.5 223.459 1099.91 224.417C1099.33 225.362 1099.04 226.818 1099.04 228.786ZM1102.34 234.592C1103.39 234.592 1104.21 234.12 1104.79 233.175C1105.38 232.217 1105.67 230.754 1105.67 228.786C1105.67 227.116 1105.48 225.821 1105.11 224.902L1100.12 233.583C1100.66 234.256 1101.4 234.592 1102.34 234.592Z" fill="url(#paint88_linear_167_180)"/>
<path d="M1144.1 22.1931C1145.7 22.1931 1146.92 22.7822 1147.74 23.9602C1148.58 25.1254 1149 26.8213 1149 29.048C1149 31.2747 1148.58 32.9771 1147.74 34.1552C1146.92 35.3333 1145.7 35.9223 1144.1 35.9223C1142.51 35.9223 1141.3 35.3333 1140.46 34.1552C1139.62 32.9771 1139.2 31.2747 1139.2 29.048C1139.2 26.8343 1139.62 25.1383 1140.46 23.9602C1141.3 22.7822 1142.51 22.1931 1144.1 22.1931ZM1140.79 29.048C1140.79 30.6274 1140.96 31.8638 1141.29 32.757L1146.28 24.1544C1145.75 23.546 1145.03 23.2417 1144.1 23.2417C1143.06 23.2417 1142.25 23.7207 1141.67 24.6787C1141.09 25.6238 1140.79 27.0802 1140.79 29.048ZM1144.1 34.8543C1145.15 34.8543 1145.96 34.3818 1146.55 33.4367C1147.13 32.4787 1147.43 31.0158 1147.43 29.048C1147.43 27.378 1147.24 26.0834 1146.86 25.1642L1141.87 33.8445C1142.41 34.5177 1143.15 34.8543 1144.1 34.8543Z" fill="url(#paint89_linear_167_180)"/>
<path d="M1145.45 56.8921H1148.75V57.9213H1140.19V56.8921H1144.01V45.9786L1140.37 47.8622L1139.74 46.9884L1144.23 44.5804H1145.45V56.8921Z" fill="url(#paint90_linear_167_180)"/>
<path d="M1145.45 79.0852H1148.75V80.1144H1140.19V79.0852H1144.01V68.1717L1140.37 70.0554L1139.74 69.1815L1144.23 66.7735H1145.45V79.0852Z" fill="url(#paint91_linear_167_180)"/>
<path d="M1144.1 88.7725C1145.7 88.7725 1146.92 89.3615 1147.74 90.5396C1148.58 91.7047 1149 93.4007 1149 95.6274C1149 97.8541 1148.58 99.5565 1147.74 100.735C1146.92 101.913 1145.7 102.502 1144.1 102.502C1142.51 102.502 1141.3 101.913 1140.46 100.735C1139.62 99.5565 1139.2 97.8541 1139.2 95.6274C1139.2 93.4136 1139.62 91.7177 1140.46 90.5396C1141.3 89.3615 1142.51 88.7725 1144.1 88.7725ZM1140.79 95.6274C1140.79 97.2068 1140.96 98.4431 1141.29 99.3364L1146.28 90.7338C1145.75 90.1253 1145.03 89.8211 1144.1 89.8211C1143.06 89.8211 1142.25 90.3001 1141.67 91.2581C1141.09 92.2032 1140.79 93.6596 1140.79 95.6274ZM1144.1 101.434C1145.15 101.434 1145.96 100.961 1146.55 100.016C1147.13 99.0581 1147.43 97.5952 1147.43 95.6274C1147.43 93.9573 1147.24 92.6627 1146.86 91.7436L1141.87 100.424C1142.41 101.097 1143.15 101.434 1144.1 101.434Z" fill="url(#paint92_linear_167_180)"/>
<path d="M1144.1 110.966C1145.7 110.966 1146.92 111.555 1147.74 112.733C1148.58 113.898 1149 115.594 1149 117.82C1149 120.047 1148.58 121.75 1147.74 122.928C1146.92 124.106 1145.7 124.695 1144.1 124.695C1142.51 124.695 1141.3 124.106 1140.46 122.928C1139.62 121.75 1139.2 120.047 1139.2 117.82C1139.2 115.607 1139.62 113.911 1140.46 112.733C1141.3 111.555 1142.51 110.966 1144.1 110.966ZM1140.79 117.82C1140.79 119.4 1140.96 120.636 1141.29 121.53L1146.28 112.927C1145.75 112.318 1145.03 112.014 1144.1 112.014C1143.06 112.014 1142.25 112.493 1141.67 113.451C1141.09 114.396 1140.79 115.853 1140.79 117.82ZM1144.1 123.627C1145.15 123.627 1145.96 123.154 1146.55 122.209C1147.13 121.251 1147.43 119.788 1147.43 117.82C1147.43 116.15 1147.24 114.856 1146.86 113.937L1141.87 122.617C1142.41 123.29 1143.15 123.627 1144.1 123.627Z" fill="url(#paint93_linear_167_180)"/>
</g>
<defs>
<linearGradient id="paint0_linear_167_180" x1="48.9063" y1="292.105" x2="48.9063" y2="595.294" gradientUnits="userSpaceOnUse">
<stop stop-color="#F7DD43"/>
<stop offset="1" stop-color="#F7DD43" stop-opacity="0"/>
</linearGradient>
<linearGradient id="paint1_linear_167_180" x1="48.9063" y1="292.105" x2="48.9063" y2="595.294" gradientUnits="userSpaceOnUse">
<stop stop-color="#F7DD43"/>
<stop offset="1" stop-color="#F7DD43" stop-opacity="0"/>
</linearGradient>
<linearGradient id="paint2_linear_167_180" x1="48.9063" y1="292.105" x2="48.9063" y2="595.294" gradientUnits="userSpaceOnUse">
<stop stop-color="#F7DD43"/>
<stop offset="1" stop-color="#F7DD43" stop-opacity="0"/>
</linearGradient>
<linearGradient id="paint3_linear_167_180" x1="48.9063" y1="292.105" x2="48.9063" y2="595.294" gradientUnits="userSpaceOnUse">
<stop stop-color="#F7DD43"/>
<stop offset="1" stop-color="#F7DD43" stop-opacity="0"/>
</linearGradient>
<linearGradient id="paint4_linear_167_180" x1="48.9063" y1="292.105" x2="48.9063" y2="595.294" gradientUnits="userSpaceOnUse">
<stop stop-color="#F7DD43"/>
<stop offset="1" stop-color="#F7DD43" stop-opacity="0"/>
</linearGradient>
<linearGradient id="paint5_linear_167_180" x1="48.9063" y1="292.105" x2="48.9063" y2="595.294" gradientUnits="userSpaceOnUse">
<stop stop-color="#F7DD43"/>
<stop offset="1" stop-color="#F7DD43" stop-opacity="0"/>
</linearGradient>
<linearGradient id="paint6_linear_167_180" x1="48.9063" y1="292.105" x2="48.9063" y2="595.294" gradientUnits="userSpaceOnUse">
<stop stop-color="#F7DD43"/>
<stop offset="1" stop-color="#F7DD43" stop-opacity="0"/>
</linearGradient>
<linearGradient id="paint7_linear_167_180" x1="48.9063" y1="292.105" x2="48.9063" y2="595.294" gradientUnits="userSpaceOnUse">
<stop stop-color="#F7DD43"/>
<stop offset="1" stop-color="#F7DD43" stop-opacity="0"/>
</linearGradient>
<linearGradient id="paint8_linear_167_180" x1="48.9063" y1="292.105" x2="48.9063" y2="595.294" gradientUnits="userSpaceOnUse">
<stop stop-color="#F7DD43"/>
<stop offset="1" stop-color="#F7DD43" stop-opacity="0"/>
</linearGradient>
<linearGradient id="paint9_linear_167_180" x1="48.9063" y1="292.105" x2="48.9063" y2="595.294" gradientUnits="userSpaceOnUse">
<stop stop-color="#F7DD43"/>
<stop offset="1" stop-color="#F7DD43" stop-opacity="0"/>
</linearGradient>
<linearGradient id="paint10_linear_167_180" x1="48.9063" y1="292.105" x2="48.9063" y2="595.294" gradientUnits="userSpaceOnUse">
<stop stop-color="#F7DD43"/>
<stop offset="1" stop-color="#F7DD43" stop-opacity="0"/>
</linearGradient>
<linearGradient id="paint11_linear_167_180" x1="48.9063" y1="292.105" x2="48.9063" y2="595.294" gradientUnits="userSpaceOnUse">
<stop stop-color="#F7DD43"/>
<stop offset="1" stop-color="#F7DD43" stop-opacity="0"/>
</linearGradient>
<linearGradient id="paint12_linear_167_180" x1="48.9063" y1="292.105" x2="48.9063" y2="595.294" gradientUnits="userSpaceOnUse">
<stop stop-color="#F7DD43"/>
<stop offset="1" stop-color="#F7DD43" stop-opacity="0"/>
</linearGradient>
<linearGradient id="paint13_linear_167_180" x1="48.9063" y1="292.105" x2="48.9063" y2="595.294" gradientUnits="userSpaceOnUse">
<stop stop-color="#F7DD43"/>
<stop offset="1" stop-color="#F7DD43" stop-opacity="0"/>
</linearGradient>
<linearGradient id="paint14_linear_167_180" x1="48.9063" y1="292.105" x2="48.9063" y2="595.294" gradientUnits="userSpaceOnUse">
<stop stop-color="#F7DD43"/>
<stop offset="1" stop-color="#F7DD43" stop-opacity="0"/>
</linearGradient>
<linearGradient id="paint15_linear_167_180" x1="48.9063" y1="292.105" x2="48.9063" y2="595.294" gradientUnits="userSpaceOnUse">
<stop stop-color="#F7DD43"/>
<stop offset="1" stop-color="#F7DD43" stop-opacity="0"/>
</linearGradient>
<linearGradient id="paint16_linear_167_180" x1="48.9063" y1="292.105" x2="48.9063" y2="595.294" gradientUnits="userSpaceOnUse">
<stop stop-color="#F7DD43"/>
<stop offset="1" stop-color="#F7DD43" stop-opacity="0"/>
</linearGradient>
<linearGradient id="paint17_linear_167_180" x1="48.9063" y1="292.105" x2="48.9063" y2="595.294" gradientUnits="userSpaceOnUse">
<stop stop-color="#F7DD43"/>
<stop offset="1" stop-color="#F7DD43" stop-opacity="0"/>
</linearGradient>
<linearGradient id="paint18_linear_167_180" x1="48.9063" y1="292.105" x2="48.9063" y2="595.294" gradientUnits="userSpaceOnUse">
<stop stop-color="#F7DD43"/>
<stop offset="1" stop-color="#F7DD43" stop-opacity="0"/>
</linearGradient>
<linearGradient id="paint19_linear_167_180" x1="48.9063" y1="292.105" x2="48.9063" y2="595.294" gradientUnits="userSpaceOnUse">
<stop stop-color="#F7DD43"/>
<stop offset="1" stop-color="#F7DD43" stop-opacity="0"/>
</linearGradient>
<linearGradient id="paint20_linear_167_180" x1="48.9063" y1="292.105" x2="48.9063" y2="595.294" gradientUnits="userSpaceOnUse">
<stop stop-color="#F7DD43"/>
<stop offset="1" stop-color="#F7DD43" stop-opacity="0"/>
</linearGradient>
<linearGradient id="paint21_linear_167_180" x1="48.9063" y1="292.105" x2="48.9063" y2="595.294" gradientUnits="userSpaceOnUse">
<stop stop-color="#F7DD43"/>
<stop offset="1" stop-color="#F7DD43" stop-opacity="0"/>
</linearGradient>
<linearGradient id="paint22_linear_167_180" x1="48.9063" y1="292.105" x2="48.9063" y2="595.294" gradientUnits="userSpaceOnUse">
<stop stop-color="#F7DD43"/>
<stop offset="1" stop-color="#F7DD43" stop-opacity="0"/>
</linearGradient>
<linearGradient id="paint23_linear_167_180" x1="48.9063" y1="292.105" x2="48.9063" y2="595.294" gradientUnits="userSpaceOnUse">
<stop stop-color="#F7DD43"/>
<stop offset="1" stop-color="#F7DD43" stop-opacity="0"/>
</linearGradient>
<linearGradient id="paint24_linear_167_180" x1="48.9063" y1="292.105" x2="48.9063" y2="595.294" gradientUnits="userSpaceOnUse">
<stop stop-color="#F7DD43"/>
<stop offset="1" stop-color="#F7DD43" stop-opacity="0"/>
</linearGradient>
<linearGradient id="paint25_linear_167_180" x1="48.9063" y1="292.105" x2="48.9063" y2="595.294" gradientUnits="userSpaceOnUse">
<stop stop-color="#F7DD43"/>
<stop offset="1" stop-color="#F7DD43" stop-opacity="0"/>
</linearGradient>
<linearGradient id="paint26_linear_167_180" x1="48.9063" y1="292.105" x2="48.9063" y2="595.294" gradientUnits="userSpaceOnUse">
<stop stop-color="#F7DD43"/>
<stop offset="1" stop-color="#F7DD43" stop-opacity="0"/>
</linearGradient>
<linearGradient id="paint27_linear_167_180" x1="48.9063" y1="292.105" x2="48.9063" y2="595.294" gradientUnits="userSpaceOnUse">
<stop stop-color="#F7DD43"/>
<stop offset="1" stop-color="#F7DD43" stop-opacity="0"/>
</linearGradient>
<linearGradient id="paint28_linear_167_180" x1="48.9063" y1="292.105" x2="48.9063" y2="595.294" gradientUnits="userSpaceOnUse">
<stop stop-color="#F7DD43"/>
<stop offset="1" stop-color="#F7DD43" stop-opacity="0"/>
</linearGradient>
<linearGradient id="paint29_linear_167_180" x1="48.9063" y1="292.105" x2="48.9063" y2="595.294" gradientUnits="userSpaceOnUse">
<stop stop-color="#F7DD43"/>
<stop offset="1" stop-color="#F7DD43" stop-opacity="0"/>
</linearGradient>
<linearGradient id="paint30_linear_167_180" x1="48.9063" y1="292.105" x2="48.9063" y2="595.294" gradientUnits="userSpaceOnUse">
<stop stop-color="#F7DD43"/>
<stop offset="1" stop-color="#F7DD43" stop-opacity="0"/>
</linearGradient>
<linearGradient id="paint31_linear_167_180" x1="48.9063" y1="292.105" x2="48.9063" y2="595.294" gradientUnits="userSpaceOnUse">
<stop stop-color="#F7DD43"/>
<stop offset="1" stop-color="#F7DD43" stop-opacity="0"/>
</linearGradient>
<linearGradient id="paint32_linear_167_180" x1="48.9063" y1="292.105" x2="48.9063" y2="595.294" gradientUnits="userSpaceOnUse">
<stop stop-color="#F7DD43"/>
<stop offset="1" stop-color="#F7DD43" stop-opacity="0"/>
</linearGradient>
<linearGradient id="paint33_linear_167_180" x1="48.9063" y1="292.105" x2="48.9063" y2="595.294" gradientUnits="userSpaceOnUse">
<stop stop-color="#F7DD43"/>
<stop offset="1" stop-color="#F7DD43" stop-opacity="0"/>
</linearGradient>
<linearGradient id="paint34_linear_167_180" x1="48.9063" y1="292.105" x2="48.9063" y2="595.294" gradientUnits="userSpaceOnUse">
<stop stop-color="#F7DD43"/>
<stop offset="1" stop-color="#F7DD43" stop-opacity="0"/>
</linearGradient>
<linearGradient id="paint35_linear_167_180" x1="48.9063" y1="292.105" x2="48.9063" y2="595.294" gradientUnits="userSpaceOnUse">
<stop stop-color="#F7DD43"/>
<stop offset="1" stop-color="#F7DD43" stop-opacity="0"/>
</linearGradient>
<linearGradient id="paint36_linear_167_180" x1="48.9063" y1="292.105" x2="48.9063" y2="595.294" gradientUnits="userSpaceOnUse">
<stop stop-color="#F7DD43"/>
<stop offset="1" stop-color="#F7DD43" stop-opacity="0"/>
</linearGradient>
<linearGradient id="paint37_linear_167_180" x1="48.9063" y1="292.105" x2="48.9063" y2="595.294" gradientUnits="userSpaceOnUse">
<stop stop-color="#F7DD43"/>
<stop offset="1" stop-color="#F7DD43" stop-opacity="0"/>
</linearGradient>
<linearGradient id="paint38_linear_167_180" x1="48.9063" y1="292.105" x2="48.9063" y2="595.294" gradientUnits="userSpaceOnUse">
<stop stop-color="#F7DD43"/>
<stop offset="1" stop-color="#F7DD43" stop-opacity="0"/>
</linearGradient>
<linearGradient id="paint39_linear_167_180" x1="48.9063" y1="292.105" x2="48.9063" y2="595.294" gradientUnits="userSpaceOnUse">
<stop stop-color="#F7DD43"/>
<stop offset="1" stop-color="#F7DD43" stop-opacity="0"/>
</linearGradient>
<linearGradient id="paint40_linear_167_180" x1="48.9063" y1="292.105" x2="48.9063" y2="595.294" gradientUnits="userSpaceOnUse">
<stop stop-color="#F7DD43"/>
<stop offset="1" stop-color="#F7DD43" stop-opacity="0"/>
</linearGradient>
<linearGradient id="paint41_linear_167_180" x1="48.9063" y1="292.105" x2="48.9063" y2="595.294" gradientUnits="userSpaceOnUse">
<stop stop-color="#F7DD43"/>
<stop offset="1" stop-color="#F7DD43" stop-opacity="0"/>
</linearGradient>
<linearGradient id="paint42_linear_167_180" x1="48.9063" y1="292.105" x2="48.9063" y2="595.294" gradientUnits="userSpaceOnUse">
<stop stop-color="#F7DD43"/>
<stop offset="1" stop-color="#F7DD43" stop-opacity="0"/>
</linearGradient>
<linearGradient id="paint43_linear_167_180" x1="48.9063" y1="292.105" x2="48.9063" y2="595.294" gradientUnits="userSpaceOnUse">
<stop stop-color="#F7DD43"/>
<stop offset="1" stop-color="#F7DD43" stop-opacity="0"/>
</linearGradient>
<linearGradient id="paint44_linear_167_180" x1="48.9063" y1="292.105" x2="48.9063" y2="595.294" gradientUnits="userSpaceOnUse">
<stop stop-color="#F7DD43"/>
<stop offset="1" stop-color="#F7DD43" stop-opacity="0"/>
</linearGradient>
<linearGradient id="paint45_linear_167_180" x1="48.9063" y1="292.105" x2="48.9063" y2="595.294" gradientUnits="userSpaceOnUse">
<stop stop-color="#F7DD43"/>
<stop offset="1" stop-color="#F7DD43" stop-opacity="0"/>
</linearGradient>
<linearGradient id="paint46_linear_167_180" x1="48.9063" y1="292.105" x2="48.9063" y2="595.294" gradientUnits="userSpaceOnUse">
<stop stop-color="#F7DD43"/>
<stop offset="1" stop-color="#F7DD43" stop-opacity="0"/>
</linearGradient>
<linearGradient id="paint47_linear_167_180" x1="1102.34" y1="0" x2="1102.34" y2="290.956" gradientUnits="userSpaceOnUse">
<stop stop-color="#F7DD43"/>
<stop offset="1" stop-color="#F7DD43" stop-opacity="0"/>
</linearGradient>
<linearGradient id="paint48_linear_167_180" x1="1102.34" y1="0" x2="1102.34" y2="290.956" gradientUnits="userSpaceOnUse">
<stop stop-color="#F7DD43"/>
<stop offset="1" stop-color="#F7DD43" stop-opacity="0"/>
</linearGradient>
<linearGradient id="paint49_linear_167_180" x1="1102.34" y1="0" x2="1102.34" y2="290.956" gradientUnits="userSpaceOnUse">
<stop stop-color="#F7DD43"/>
<stop offset="1" stop-color="#F7DD43" stop-opacity="0"/>
</linearGradient>
<linearGradient id="paint50_linear_167_180" x1="1102.34" y1="0" x2="1102.34" y2="290.956" gradientUnits="userSpaceOnUse">
<stop stop-color="#F7DD43"/>
<stop offset="1" stop-color="#F7DD43" stop-opacity="0"/>
</linearGradient>
<linearGradient id="paint51_linear_167_180" x1="1102.34" y1="0" x2="1102.34" y2="290.956" gradientUnits="userSpaceOnUse">
<stop stop-color="#F7DD43"/>
<stop offset="1" stop-color="#F7DD43" stop-opacity="0"/>
</linearGradient>
<linearGradient id="paint52_linear_167_180" x1="1102.34" y1="0" x2="1102.34" y2="290.956" gradientUnits="userSpaceOnUse">
<stop stop-color="#F7DD43"/>
<stop offset="1" stop-color="#F7DD43" stop-opacity="0"/>
</linearGradient>
<linearGradient id="paint53_linear_167_180" x1="1102.34" y1="0" x2="1102.34" y2="290.956" gradientUnits="userSpaceOnUse">
<stop stop-color="#F7DD43"/>
<stop offset="1" stop-color="#F7DD43" stop-opacity="0"/>
</linearGradient>
<linearGradient id="paint54_linear_167_180" x1="1102.34" y1="0" x2="1102.34" y2="290.956" gradientUnits="userSpaceOnUse">
<stop stop-color="#F7DD43"/>
<stop offset="1" stop-color="#F7DD43" stop-opacity="0"/>
</linearGradient>
<linearGradient id="paint55_linear_167_180" x1="1102.34" y1="0" x2="1102.34" y2="290.956" gradientUnits="userSpaceOnUse">
<stop stop-color="#F7DD43"/>
<stop offset="1" stop-color="#F7DD43" stop-opacity="0"/>
</linearGradient>
<linearGradient id="paint56_linear_167_180" x1="1102.34" y1="0" x2="1102.34" y2="290.956" gradientUnits="userSpaceOnUse">
<stop stop-color="#F7DD43"/>
<stop offset="1" stop-color="#F7DD43" stop-opacity="0"/>
</linearGradient>
<linearGradient id="paint57_linear_167_180" x1="1102.34" y1="0" x2="1102.34" y2="290.956" gradientUnits="userSpaceOnUse">
<stop stop-color="#F7DD43"/>
<stop offset="1" stop-color="#F7DD43" stop-opacity="0"/>
</linearGradient>
<linearGradient id="paint58_linear_167_180" x1="1102.34" y1="0" x2="1102.34" y2="290.956" gradientUnits="userSpaceOnUse">
<stop stop-color="#F7DD43"/>
<stop offset="1" stop-color="#F7DD43" stop-opacity="0"/>
</linearGradient>
<linearGradient id="paint59_linear_167_180" x1="1102.34" y1="0" x2="1102.34" y2="290.956" gradientUnits="userSpaceOnUse">
<stop stop-color="#F7DD43"/>
<stop offset="1" stop-color="#F7DD43" stop-opacity="0"/>
</linearGradient>
<linearGradient id="paint60_linear_167_180" x1="1102.34" y1="0" x2="1102.34" y2="290.956" gradientUnits="userSpaceOnUse">
<stop stop-color="#F7DD43"/>
<stop offset="1" stop-color="#F7DD43" stop-opacity="0"/>
</linearGradient>
<linearGradient id="paint61_linear_167_180" x1="1102.34" y1="0" x2="1102.34" y2="290.956" gradientUnits="userSpaceOnUse">
<stop stop-color="#F7DD43"/>
<stop offset="1" stop-color="#F7DD43" stop-opacity="0"/>
</linearGradient>
<linearGradient id="paint62_linear_167_180" x1="1102.34" y1="0" x2="1102.34" y2="290.956" gradientUnits="userSpaceOnUse">
<stop stop-color="#F7DD43"/>
<stop offset="1" stop-color="#F7DD43" stop-opacity="0"/>
</linearGradient>
<linearGradient id="paint63_linear_167_180" x1="1102.34" y1="0" x2="1102.34" y2="290.956" gradientUnits="userSpaceOnUse">
<stop stop-color="#F7DD43"/>
<stop offset="1" stop-color="#F7DD43" stop-opacity="0"/>
</linearGradient>
<linearGradient id="paint64_linear_167_180" x1="1102.34" y1="0" x2="1102.34" y2="290.956" gradientUnits="userSpaceOnUse">
<stop stop-color="#F7DD43"/>
<stop offset="1" stop-color="#F7DD43" stop-opacity="0"/>
</linearGradient>
<linearGradient id="paint65_linear_167_180" x1="1102.34" y1="0" x2="1102.34" y2="290.956" gradientUnits="userSpaceOnUse">
<stop stop-color="#F7DD43"/>
<stop offset="1" stop-color="#F7DD43" stop-opacity="0"/>
</linearGradient>
<linearGradient id="paint66_linear_167_180" x1="1102.34" y1="0" x2="1102.34" y2="290.956" gradientUnits="userSpaceOnUse">
<stop stop-color="#F7DD43"/>
<stop offset="1" stop-color="#F7DD43" stop-opacity="0"/>
</linearGradient>
<linearGradient id="paint67_linear_167_180" x1="1102.34" y1="0" x2="1102.34" y2="290.956" gradientUnits="userSpaceOnUse">
<stop stop-color="#F7DD43"/>
<stop offset="1" stop-color="#F7DD43" stop-opacity="0"/>
</linearGradient>
<linearGradient id="paint68_linear_167_180" x1="1102.34" y1="0" x2="1102.34" y2="290.956" gradientUnits="userSpaceOnUse">
<stop stop-color="#F7DD43"/>
<stop offset="1" stop-color="#F7DD43" stop-opacity="0"/>
</linearGradient>
<linearGradient id="paint69_linear_167_180" x1="1102.34" y1="0" x2="1102.34" y2="290.956" gradientUnits="userSpaceOnUse">
<stop stop-color="#F7DD43"/>
<stop offset="1" stop-color="#F7DD43" stop-opacity="0"/>
</linearGradient>
<linearGradient id="paint70_linear_167_180" x1="1102.34" y1="0" x2="1102.34" y2="290.956" gradientUnits="userSpaceOnUse">
<stop stop-color="#F7DD43"/>
<stop offset="1" stop-color="#F7DD43" stop-opacity="0"/>
</linearGradient>
<linearGradient id="paint71_linear_167_180" x1="1102.34" y1="0" x2="1102.34" y2="290.956" gradientUnits="userSpaceOnUse">
<stop stop-color="#F7DD43"/>
<stop offset="1" stop-color="#F7DD43" stop-opacity="0"/>
</linearGradient>
<linearGradient id="paint72_linear_167_180" x1="1102.34" y1="0" x2="1102.34" y2="290.956" gradientUnits="userSpaceOnUse">
<stop stop-color="#F7DD43"/>
<stop offset="1" stop-color="#F7DD43" stop-opacity="0"/>
</linearGradient>
<linearGradient id="paint73_linear_167_180" x1="1102.34" y1="0" x2="1102.34" y2="290.956" gradientUnits="userSpaceOnUse">
<stop stop-color="#F7DD43"/>
<stop offset="1" stop-color="#F7DD43" stop-opacity="0"/>
</linearGradient>
<linearGradient id="paint74_linear_167_180" x1="1102.34" y1="0" x2="1102.34" y2="290.956" gradientUnits="userSpaceOnUse">
<stop stop-color="#F7DD43"/>
<stop offset="1" stop-color="#F7DD43" stop-opacity="0"/>
</linearGradient>
<linearGradient id="paint75_linear_167_180" x1="1102.34" y1="0" x2="1102.34" y2="290.956" gradientUnits="userSpaceOnUse">
<stop stop-color="#F7DD43"/>
<stop offset="1" stop-color="#F7DD43" stop-opacity="0"/>
</linearGradient>
<linearGradient id="paint76_linear_167_180" x1="1102.34" y1="0" x2="1102.34" y2="290.956" gradientUnits="userSpaceOnUse">
<stop stop-color="#F7DD43"/>
<stop offset="1" stop-color="#F7DD43" stop-opacity="0"/>
</linearGradient>
<linearGradient id="paint77_linear_167_180" x1="1102.34" y1="0" x2="1102.34" y2="290.956" gradientUnits="userSpaceOnUse">
<stop stop-color="#F7DD43"/>
<stop offset="1" stop-color="#F7DD43" stop-opacity="0"/>
</linearGradient>
<linearGradient id="paint78_linear_167_180" x1="1102.34" y1="0" x2="1102.34" y2="290.956" gradientUnits="userSpaceOnUse">
<stop stop-color="#F7DD43"/>
<stop offset="1" stop-color="#F7DD43" stop-opacity="0"/>
</linearGradient>
<linearGradient id="paint79_linear_167_180" x1="1102.34" y1="0" x2="1102.34" y2="290.956" gradientUnits="userSpaceOnUse">
<stop stop-color="#F7DD43"/>
<stop offset="1" stop-color="#F7DD43" stop-opacity="0"/>
</linearGradient>
<linearGradient id="paint80_linear_167_180" x1="1102.34" y1="0" x2="1102.34" y2="290.956" gradientUnits="userSpaceOnUse">
<stop stop-color="#F7DD43"/>
<stop offset="1" stop-color="#F7DD43" stop-opacity="0"/>
</linearGradient>
<linearGradient id="paint81_linear_167_180" x1="1102.34" y1="0" x2="1102.34" y2="290.956" gradientUnits="userSpaceOnUse">
<stop stop-color="#F7DD43"/>
<stop offset="1" stop-color="#F7DD43" stop-opacity="0"/>
</linearGradient>
<linearGradient id="paint82_linear_167_180" x1="1102.34" y1="0" x2="1102.34" y2="290.956" gradientUnits="userSpaceOnUse">
<stop stop-color="#F7DD43"/>
<stop offset="1" stop-color="#F7DD43" stop-opacity="0"/>
</linearGradient>
<linearGradient id="paint83_linear_167_180" x1="1102.34" y1="0" x2="1102.34" y2="290.956" gradientUnits="userSpaceOnUse">
<stop stop-color="#F7DD43"/>
<stop offset="1" stop-color="#F7DD43" stop-opacity="0"/>
</linearGradient>
<linearGradient id="paint84_linear_167_180" x1="1102.34" y1="0" x2="1102.34" y2="290.956" gradientUnits="userSpaceOnUse">
<stop stop-color="#F7DD43"/>
<stop offset="1" stop-color="#F7DD43" stop-opacity="0"/>
</linearGradient>
<linearGradient id="paint85_linear_167_180" x1="1102.34" y1="0" x2="1102.34" y2="290.956" gradientUnits="userSpaceOnUse">
<stop stop-color="#F7DD43"/>
<stop offset="1" stop-color="#F7DD43" stop-opacity="0"/>
</linearGradient>
<linearGradient id="paint86_linear_167_180" x1="1102.34" y1="0" x2="1102.34" y2="290.956" gradientUnits="userSpaceOnUse">
<stop stop-color="#F7DD43"/>
<stop offset="1" stop-color="#F7DD43" stop-opacity="0"/>
</linearGradient>
<linearGradient id="paint87_linear_167_180" x1="1102.34" y1="0" x2="1102.34" y2="290.956" gradientUnits="userSpaceOnUse">
<stop stop-color="#F7DD43"/>
<stop offset="1" stop-color="#F7DD43" stop-opacity="0"/>
</linearGradient>
<linearGradient id="paint88_linear_167_180" x1="1102.34" y1="0" x2="1102.34" y2="290.956" gradientUnits="userSpaceOnUse">
<stop stop-color="#F7DD43"/>
<stop offset="1" stop-color="#F7DD43" stop-opacity="0"/>
</linearGradient>
<linearGradient id="paint89_linear_167_180" x1="1102.34" y1="0" x2="1102.34" y2="290.956" gradientUnits="userSpaceOnUse">
<stop stop-color="#F7DD43"/>
<stop offset="1" stop-color="#F7DD43" stop-opacity="0"/>
</linearGradient>
<linearGradient id="paint90_linear_167_180" x1="1102.34" y1="0" x2="1102.34" y2="290.956" gradientUnits="userSpaceOnUse">
<stop stop-color="#F7DD43"/>
<stop offset="1" stop-color="#F7DD43" stop-opacity="0"/>
</linearGradient>
<linearGradient id="paint91_linear_167_180" x1="1102.34" y1="0" x2="1102.34" y2="290.956" gradientUnits="userSpaceOnUse">
<stop stop-color="#F7DD43"/>
<stop offset="1" stop-color="#F7DD43" stop-opacity="0"/>
</linearGradient>
<linearGradient id="paint92_linear_167_180" x1="1102.34" y1="0" x2="1102.34" y2="290.956" gradientUnits="userSpaceOnUse">
<stop stop-color="#F7DD43"/>
<stop offset="1" stop-color="#F7DD43" stop-opacity="0"/>
</linearGradient>
<linearGradient id="paint93_linear_167_180" x1="1102.34" y1="0" x2="1102.34" y2="290.956" gradientUnits="userSpaceOnUse">
<stop stop-color="#F7DD43"/>
<stop offset="1" stop-color="#F7DD43" stop-opacity="0"/>
</linearGradient>
</defs>
</svg>
