<svg width="50" height="50" viewBox="0 0 50 50" fill="none" xmlns="http://www.w3.org/2000/svg">
<path d="M25 4.16666C20.8796 4.16666 16.8517 5.38851 13.4257 7.67771C9.99963 9.9669 7.32937 13.2206 5.75254 17.0274C4.17571 20.8342 3.76314 25.0231 4.567 29.0644C5.37086 33.1056 7.35504 36.8178 10.2686 39.7314C13.1822 42.645 16.8944 44.6292 20.9357 45.433C24.9769 46.2369 29.1658 45.8243 32.9726 44.2475C36.7794 42.6707 40.0331 40.0004 42.3223 36.5744C44.6115 33.1483 45.8334 29.1204 45.8334 25C45.8334 22.2641 45.2945 19.555 44.2475 17.0274C43.2006 14.4998 41.666 12.2032 39.7314 10.2686C37.7969 8.33404 35.5002 6.79947 32.9726 5.7525C30.445 4.70553 27.7359 4.16666 25 4.16666V4.16666ZM25 37.5C24.588 37.5 24.1852 37.3778 23.8426 37.1489C23.5 36.92 23.233 36.5946 23.0753 36.2139C22.9176 35.8332 22.8763 35.4143 22.9567 35.0102C23.0371 34.6061 23.2355 34.2349 23.5269 33.9435C23.8183 33.6522 24.1895 33.4537 24.5936 33.3734C24.9977 33.293 25.4166 33.3342 25.7973 33.4919C26.178 33.6496 26.5033 33.9166 26.7323 34.2592C26.9612 34.6018 27.0834 35.0046 27.0834 35.4167C27.0834 35.9692 26.8639 36.4991 26.4732 36.8898C26.0825 37.2805 25.5526 37.5 25 37.5ZM27.0834 26.75V29.1667C27.0834 29.7192 26.8639 30.2491 26.4732 30.6398C26.0825 31.0305 25.5526 31.25 25 31.25C24.4475 31.25 23.9176 31.0305 23.5269 30.6398C23.1362 30.2491 22.9167 29.7192 22.9167 29.1667V25C22.9167 24.4475 23.1362 23.9176 23.5269 23.5269C23.9176 23.1361 24.4475 22.9167 25 22.9167C25.6181 22.9167 26.2223 22.7334 26.7362 22.39C27.2501 22.0466 27.6506 21.5586 27.8872 20.9875C28.1237 20.4165 28.1856 19.7882 28.065 19.182C27.9444 18.5758 27.6468 18.019 27.2097 17.5819C26.7727 17.1449 26.2159 16.8473 25.6097 16.7267C25.0035 16.6061 24.3752 16.668 23.8041 16.9045C23.2331 17.1411 22.7451 17.5416 22.4017 18.0555C22.0583 18.5694 21.875 19.1736 21.875 19.7917C21.875 20.3442 21.6555 20.8741 21.2648 21.2648C20.8741 21.6555 20.3442 21.875 19.7917 21.875C19.2392 21.875 18.7093 21.6555 18.3186 21.2648C17.9279 20.8741 17.7084 20.3442 17.7084 19.7917C17.7029 18.4381 18.0743 17.1098 18.781 15.9554C19.4877 14.8009 20.5017 13.866 21.7096 13.2552C22.9176 12.6444 24.2716 12.3819 25.6203 12.4971C26.9689 12.6122 28.2589 13.1005 29.3458 13.9072C30.4327 14.7139 31.2735 15.8072 31.7743 17.0647C32.275 18.3222 32.4159 19.6943 32.1811 21.0273C31.9462 22.3603 31.345 23.6017 30.4447 24.6124C29.5444 25.6231 28.3805 26.3633 27.0834 26.75V26.75Z" fill="#F7DD43"/>
</svg>
