<svg width="38" height="38" viewBox="0 0 50 50" fill="none" xmlns="http://www.w3.org/2000/svg">
<path d="M25 5C19.6957 5 14.6086 7.10714 10.8579 10.8579C7.10714 14.6086 5 19.6957 5 25C5 30.3043 7.10714 35.3914 10.8579 39.1421C14.6086 42.8929 19.6957 45 25 45C30.3043 45 35.3914 42.8929 39.1421 39.1421C42.8929 35.3914 45 30.3043 45 25C45 19.6957 42.8929 14.6086 39.1421 10.8579C35.3914 7.10714 30.3043 5 25 5ZM17.73 9.075L23.755 12.59V16.84L16.8325 21.72L12.9325 20.3025L11.3675 14.0225C13.0761 11.9024 15.2543 10.2086 17.73 9.075ZM7.585 26.73L12.1525 22.68L16.0175 24.0825L18.63 32.3075L16.8375 34.99H10.63C8.92375 32.5432 7.87519 29.6988 7.585 26.73ZM20.9325 42.025L18.895 36.41L20.67 33.7525H29.3375L31.115 36.41L29.0775 42.0225C26.4001 42.6617 23.6099 42.6617 20.9325 42.0225V42.025ZM39.37 34.99H33.175L31.375 32.3025L33.9375 24.085L37.855 22.675L42.415 26.73C42.1248 29.6988 41.0762 32.5432 39.37 34.99ZM38.645 14.04L37.08 20.2975L33.12 21.7225L26.2525 16.8425V12.5925L32.275 9.075C34.755 10.2119 36.936 11.911 38.645 14.0375V14.04Z" fill="#F7DD43"/>
</svg>

